<svg width="923" height="242" viewBox="0 0 923 242" fill="none" xmlns="http://www.w3.org/2000/svg">
<g clip-path="url(#clip0_36_146)">
<path d="M365.73 147H348.63L297.18 69.15V147H280.08V42.6H297.18L348.63 120.3V42.6H365.73V147ZM460.936 103.65C460.936 106.75 460.736 109.55 460.336 112.05H397.186C397.686 118.65 400.136 123.95 404.536 127.95C408.936 131.95 414.336 133.95 420.736 133.95C429.936 133.95 436.436 130.1 440.236 122.4H458.686C456.186 130 451.636 136.25 445.036 141.15C438.536 145.95 430.436 148.35 420.736 148.35C412.836 148.35 405.736 146.6 399.436 143.1C393.236 139.5 388.336 134.5 384.736 128.1C381.236 121.6 379.486 114.1 379.486 105.6C379.486 97.1 381.186 89.65 384.586 83.25C388.086 76.75 392.936 71.75 399.136 68.25C405.436 64.75 412.636 63 420.736 63C428.536 63 435.486 64.7 441.586 68.1C447.686 71.5 452.436 76.3 455.836 82.5C459.236 88.6 460.936 95.65 460.936 103.65ZM443.086 98.25C442.986 91.95 440.736 86.9 436.336 83.1C431.936 79.3 426.486 77.4 419.986 77.4C414.086 77.4 409.036 79.3 404.836 83.1C400.636 86.8 398.136 91.85 397.336 98.25H443.086ZM510.614 148.35C502.814 148.35 495.764 146.6 489.464 143.1C483.164 139.5 478.214 134.5 474.614 128.1C471.014 121.6 469.214 114.1 469.214 105.6C469.214 97.2 471.064 89.75 474.764 83.25C478.464 76.75 483.514 71.75 489.914 68.25C496.314 64.75 503.464 63 511.364 63C519.264 63 526.414 64.75 532.814 68.25C539.214 71.75 544.264 76.75 547.964 83.25C551.664 89.75 553.514 97.2 553.514 105.6C553.514 114 551.614 121.45 547.814 127.95C544.014 134.45 538.814 139.5 532.214 143.1C525.714 146.6 518.514 148.35 510.614 148.35ZM510.614 133.5C515.014 133.5 519.114 132.45 522.914 130.35C526.814 128.25 529.964 125.1 532.364 120.9C534.764 116.7 535.964 111.6 535.964 105.6C535.964 99.6 534.814 94.55 532.514 90.45C530.214 86.25 527.164 83.1 523.364 81C519.564 78.9 515.464 77.85 511.064 77.85C506.664 77.85 502.564 78.9 498.764 81C495.064 83.1 492.114 86.25 489.914 90.45C487.714 94.55 486.614 99.6 486.614 105.6C486.614 114.5 488.864 121.4 493.364 126.3C497.964 131.1 503.714 133.5 510.614 133.5Z" fill="url(#paint0_linear_36_146)"/>
<path d="M605.43 148.05C598.43 148.05 592.13 146.85 586.53 144.45C580.93 141.95 576.53 138.45 573.33 133.95C570.13 129.45 568.53 124.2 568.53 118.2H586.83C587.23 122.7 588.98 126.4 592.08 129.3C595.28 132.2 599.73 133.65 605.43 133.65C611.33 133.65 615.93 132.25 619.23 129.45C622.53 126.55 624.18 122.85 624.18 118.35C624.18 114.85 623.13 112 621.03 109.8C619.03 107.6 616.48 105.9 613.38 104.7C610.38 103.5 606.18 102.2 600.78 100.8C593.98 99 588.43 97.2 584.13 95.4C579.93 93.5 576.33 90.6 573.33 86.7C570.33 82.8 568.83 77.6 568.83 71.1C568.83 65.1 570.33 59.85 573.33 55.35C576.33 50.85 580.53 47.4 585.93 45C591.33 42.6 597.58 41.4 604.68 41.4C614.78 41.4 623.03 43.95 629.43 49.05C635.93 54.05 639.53 60.95 640.23 69.75H621.33C621.03 65.95 619.23 62.7 615.93 60C612.63 57.3 608.28 55.95 602.88 55.95C597.98 55.95 593.98 57.2 590.88 59.7C587.78 62.2 586.23 65.8 586.23 70.5C586.23 73.7 587.18 76.35 589.08 78.45C591.08 80.45 593.58 82.05 596.58 83.25C599.58 84.45 603.68 85.75 608.88 87.15C615.78 89.05 621.38 90.95 625.68 92.85C630.08 94.75 633.78 97.7 636.78 101.7C639.88 105.6 641.43 110.85 641.43 117.45C641.43 122.75 639.98 127.75 637.08 132.45C634.28 137.15 630.13 140.95 624.63 143.85C619.23 146.65 612.83 148.05 605.43 148.05ZM734.357 103.65C734.357 106.75 734.157 109.55 733.757 112.05H670.607C671.107 118.65 673.557 123.95 677.957 127.95C682.357 131.95 687.757 133.95 694.157 133.95C703.357 133.95 709.857 130.1 713.657 122.4H732.107C729.607 130 725.057 136.25 718.457 141.15C711.957 145.95 703.857 148.35 694.157 148.35C686.257 148.35 679.157 146.6 672.857 143.1C666.657 139.5 661.757 134.5 658.157 128.1C654.657 121.6 652.907 114.1 652.907 105.6C652.907 97.1 654.607 89.65 658.007 83.25C661.507 76.75 666.357 71.75 672.557 68.25C678.857 64.75 686.057 63 694.157 63C701.957 63 708.907 64.7 715.007 68.1C721.107 71.5 725.857 76.3 729.257 82.5C732.657 88.6 734.357 95.65 734.357 103.65ZM716.507 98.25C716.407 91.95 714.157 86.9 709.757 83.1C705.357 79.3 699.907 77.4 693.407 77.4C687.507 77.4 682.457 79.3 678.257 83.1C674.057 86.8 671.557 91.85 670.757 98.25H716.507ZM789.886 63C796.386 63 802.186 64.35 807.286 67.05C812.486 69.75 816.536 73.75 819.436 79.05C822.336 84.35 823.786 90.75 823.786 98.25V147H806.836V100.8C806.836 93.4 804.986 87.75 801.286 83.85C797.586 79.85 792.536 77.85 786.136 77.85C779.736 77.85 774.636 79.85 770.836 83.85C767.136 87.75 765.286 93.4 765.286 100.8V147H748.186V64.35H765.286V73.8C768.086 70.4 771.636 67.75 775.936 65.85C780.336 63.95 784.986 63 789.886 63ZM862.548 78.3V124.05C862.548 127.15 863.248 129.4 864.648 130.8C866.148 132.1 868.648 132.75 872.148 132.75H882.648V147H869.148C861.448 147 855.548 145.2 851.448 141.6C847.348 138 845.298 132.15 845.298 124.05V78.3H835.548V64.35H845.298V43.8H862.548V64.35H882.648V78.3H862.548ZM904.108 53.4C901.008 53.4 898.408 52.35 896.308 50.25C894.208 48.15 893.158 45.55 893.158 42.45C893.158 39.35 894.208 36.75 896.308 34.65C898.408 32.55 901.008 31.5 904.108 31.5C907.108 31.5 909.658 32.55 911.758 34.65C913.858 36.75 914.908 39.35 914.908 42.45C914.908 45.55 913.858 48.15 911.758 50.25C909.658 52.35 907.108 53.4 904.108 53.4ZM912.508 64.35V147H895.408V64.35H912.508Z" fill="#182337"/>
<rect y="0.641602" width="240" height="240" rx="60" fill="url(#paint1_linear_36_146)"/>
<g filter="url(#filter0_d_36_146)">
<path d="M125.281 150.215H107.361L66.7852 88.9028V150.215H48.8652V60.7428H66.7852L107.361 122.183V60.7428H125.281V150.215Z" fill="white"/>
</g>
<g filter="url(#filter1_d_36_146)">
<path d="M161.647 181.964C155.417 181.964 149.785 180.898 144.751 178.764C139.801 176.631 135.876 173.559 132.975 169.548C130.073 165.538 128.58 160.802 128.495 155.34H147.695C147.951 159.01 149.231 161.911 151.535 164.044C153.924 166.178 157.167 167.244 161.263 167.244C165.444 167.244 168.729 166.263 171.119 164.3C173.508 162.252 174.703 159.607 174.703 156.364C174.703 153.719 173.892 151.543 172.271 149.836C170.649 148.13 168.601 146.807 166.127 145.868C163.737 144.844 160.409 143.735 156.143 142.54C150.34 140.834 145.604 139.17 141.935 137.548C138.351 135.842 135.236 133.324 132.591 129.996C130.031 126.583 128.751 122.06 128.751 116.428C128.751 111.138 130.073 106.53 132.719 102.604C135.364 98.679 139.076 95.6924 143.855 93.6444C148.633 91.511 154.095 90.4444 160.239 90.4444C169.455 90.4444 176.921 92.7057 182.639 97.2284C188.441 101.666 191.641 107.895 192.239 115.916H172.527C172.356 112.844 171.033 110.327 168.559 108.364C166.169 106.316 162.969 105.292 158.959 105.292C155.46 105.292 152.644 106.188 150.511 107.98C148.463 109.772 147.439 112.375 147.439 115.788C147.439 118.178 148.207 120.183 149.743 121.804C151.364 123.34 153.327 124.62 155.631 125.644C158.02 126.583 161.348 127.692 165.615 128.972C171.417 130.679 176.153 132.386 179.823 134.092C183.492 135.799 186.649 138.359 189.295 141.772C191.94 145.186 193.263 149.666 193.263 155.212C193.263 159.991 192.025 164.428 189.551 168.524C187.076 172.62 183.449 175.906 178.671 178.38C173.892 180.77 168.217 181.964 161.647 181.964Z" fill="white"/>
</g>
<path d="M287.532 164.375V208.855H280.236V164.375H287.532ZM313.623 173.015C316.396 173.015 318.871 173.591 321.047 174.743C323.265 175.895 324.993 177.602 326.231 179.863C327.468 182.125 328.087 184.855 328.087 188.055V208.855H320.855V189.143C320.855 185.986 320.065 183.575 318.487 181.911C316.908 180.205 314.753 179.351 312.023 179.351C309.292 179.351 307.116 180.205 305.495 181.911C303.916 183.575 303.127 185.986 303.127 189.143V208.855H295.831V173.591H303.127V177.623C304.321 176.173 305.836 175.042 307.671 174.231C309.548 173.421 311.532 173.015 313.623 173.015ZM351.409 209.431C348.081 209.431 345.073 208.685 342.385 207.191C339.697 205.655 337.585 203.522 336.049 200.791C334.513 198.018 333.745 194.818 333.745 191.191C333.745 187.607 334.534 184.429 336.113 181.655C337.692 178.882 339.846 176.749 342.577 175.255C345.308 173.762 348.358 173.015 351.729 173.015C355.1 173.015 358.15 173.762 360.881 175.255C363.612 176.749 365.766 178.882 367.345 181.655C368.924 184.429 369.713 187.607 369.713 191.191C369.713 194.775 368.902 197.954 367.281 200.727C365.66 203.501 363.441 205.655 360.625 207.191C357.852 208.685 354.78 209.431 351.409 209.431ZM351.409 203.095C353.286 203.095 355.036 202.647 356.657 201.751C358.321 200.855 359.665 199.511 360.689 197.719C361.713 195.927 362.225 193.751 362.225 191.191C362.225 188.631 361.734 186.477 360.753 184.727C359.772 182.935 358.47 181.591 356.849 180.695C355.228 179.799 353.478 179.351 351.601 179.351C349.724 179.351 347.974 179.799 346.353 180.695C344.774 181.591 343.516 182.935 342.577 184.727C341.638 186.477 341.169 188.631 341.169 191.191C341.169 194.989 342.129 197.933 344.049 200.023C346.012 202.071 348.465 203.095 351.409 203.095ZM389.278 202.327L399.262 173.591H407.006L393.566 208.855H384.862L371.486 173.591H379.294L389.278 202.327ZM408.809 191.063C408.809 187.522 409.534 184.386 410.985 181.655C412.478 178.925 414.483 176.813 417.001 175.319C419.561 173.783 422.377 173.015 425.449 173.015C428.222 173.015 430.633 173.57 432.681 174.679C434.771 175.746 436.435 177.09 437.673 178.711V173.591H445.033V208.855H437.673V203.607C436.435 205.271 434.75 206.658 432.617 207.767C430.483 208.877 428.051 209.431 425.321 209.431C422.291 209.431 419.518 208.663 417.001 207.127C414.483 205.549 412.478 203.373 410.985 200.599C409.534 197.783 408.809 194.605 408.809 191.063ZM437.673 191.191C437.673 188.759 437.161 186.647 436.137 184.855C435.155 183.063 433.854 181.698 432.233 180.759C430.611 179.821 428.862 179.351 426.985 179.351C425.107 179.351 423.358 179.821 421.737 180.759C420.115 181.655 418.793 182.999 417.769 184.791C416.787 186.541 416.297 188.631 416.297 191.063C416.297 193.495 416.787 195.629 417.769 197.463C418.793 199.298 420.115 200.706 421.737 201.687C423.401 202.626 425.15 203.095 426.985 203.095C428.862 203.095 430.611 202.626 432.233 201.687C433.854 200.749 435.155 199.383 436.137 197.591C437.161 195.757 437.673 193.623 437.673 191.191ZM468.184 203.287C472.408 203.287 475.202 201.431 476.568 197.719H484.44C483.501 200.962 481.816 203.629 479.384 205.719C476.994 207.767 473.986 208.962 470.36 209.303V211.927C472.834 211.927 474.84 212.503 476.376 213.655C477.912 214.85 478.68 216.514 478.68 218.647C478.68 220.781 477.912 222.466 476.376 223.703C474.84 224.983 472.898 225.623 470.552 225.623H462.104V221.015H469.08C470.274 221.015 471.17 220.845 471.768 220.503C472.365 220.162 472.664 219.543 472.664 218.647C472.664 217.751 472.365 217.133 471.768 216.791C471.17 216.45 470.274 216.279 469.08 216.279H465.56V209.239C462.658 208.898 460.098 207.938 457.88 206.359C455.661 204.738 453.933 202.647 452.696 200.087C451.501 197.485 450.904 194.519 450.904 191.191C450.904 187.565 451.629 184.386 453.08 181.655C454.573 178.882 456.621 176.749 459.224 175.255C461.826 173.762 464.813 173.015 468.184 173.015C472.45 173.015 475.97 174.039 478.744 176.087C481.56 178.093 483.458 180.973 484.44 184.727H476.568C475.928 182.978 474.904 181.613 473.496 180.631C472.088 179.65 470.317 179.159 468.184 179.159C465.197 179.159 462.808 180.226 461.016 182.359C459.266 184.45 458.392 187.394 458.392 191.191C458.392 194.989 459.266 197.954 461.016 200.087C462.808 202.221 465.197 203.287 468.184 203.287ZM487.999 191.063C487.999 187.522 488.724 184.386 490.175 181.655C491.668 178.925 493.673 176.813 496.191 175.319C498.751 173.783 501.567 173.015 504.639 173.015C507.412 173.015 509.823 173.57 511.871 174.679C513.961 175.746 515.625 177.09 516.863 178.711V173.591H524.223V208.855H516.863V203.607C515.625 205.271 513.94 206.658 511.807 207.767C509.673 208.877 507.241 209.431 504.511 209.431C501.481 209.431 498.708 208.663 496.191 207.127C493.673 205.549 491.668 203.373 490.175 200.599C488.724 197.783 487.999 194.605 487.999 191.063ZM516.863 191.191C516.863 188.759 516.351 186.647 515.327 184.855C514.345 183.063 513.044 181.698 511.423 180.759C509.801 179.821 508.052 179.351 506.175 179.351C504.297 179.351 502.548 179.821 500.927 180.759C499.305 181.655 497.983 182.999 496.959 184.791C495.977 186.541 495.487 188.631 495.487 191.063C495.487 193.495 495.977 195.629 496.959 197.463C497.983 199.298 499.305 200.706 500.927 201.687C502.591 202.626 504.34 203.095 506.175 203.095C508.052 203.095 509.801 202.626 511.423 201.687C513.044 200.749 514.345 199.383 515.327 197.591C516.351 195.757 516.863 193.623 516.863 191.191ZM496.895 169.943C497.236 167.469 498.047 165.613 499.327 164.375C500.607 163.095 502.207 162.455 504.127 162.455C504.937 162.455 505.641 162.583 506.239 162.839C506.836 163.095 507.561 163.479 508.415 163.991C509.055 164.418 509.588 164.738 510.015 164.951C510.484 165.165 510.996 165.271 511.551 165.271C512.276 165.271 512.873 165.058 513.343 164.631C513.855 164.162 514.175 163.479 514.303 162.583H518.399C518.057 165.058 517.247 166.935 515.967 168.215C514.687 169.453 513.087 170.071 511.167 170.071C510.356 170.071 509.631 169.943 508.991 169.687C508.351 169.389 507.647 168.983 506.879 168.471C506.111 168.002 505.513 167.682 505.087 167.511C504.703 167.298 504.255 167.191 503.743 167.191C503.017 167.191 502.399 167.426 501.887 167.895C501.417 168.365 501.119 169.047 500.991 169.943H496.895ZM547.822 209.431C544.494 209.431 541.486 208.685 538.798 207.191C536.11 205.655 533.998 203.522 532.462 200.791C530.926 198.018 530.158 194.818 530.158 191.191C530.158 187.607 530.947 184.429 532.526 181.655C534.104 178.882 536.259 176.749 538.99 175.255C541.72 173.762 544.771 173.015 548.142 173.015C551.512 173.015 554.563 173.762 557.294 175.255C560.024 176.749 562.179 178.882 563.758 181.655C565.336 184.429 566.126 187.607 566.126 191.191C566.126 194.775 565.315 197.954 563.694 200.727C562.072 203.501 559.854 205.655 557.038 207.191C554.264 208.685 551.192 209.431 547.822 209.431ZM547.822 203.095C549.699 203.095 551.448 202.647 553.07 201.751C554.734 200.855 556.078 199.511 557.102 197.719C558.126 195.927 558.638 193.751 558.638 191.191C558.638 188.631 558.147 186.477 557.166 184.727C556.184 182.935 554.883 181.591 553.262 180.695C551.64 179.799 549.891 179.351 548.014 179.351C546.136 179.351 544.387 179.799 542.766 180.695C541.187 181.591 539.928 182.935 538.99 184.727C538.051 186.477 537.582 188.631 537.582 191.191C537.582 194.989 538.542 197.933 540.462 200.023C542.424 202.071 544.878 203.095 547.822 203.095ZM611.211 186.007C613.6 186.434 615.627 187.693 617.291 189.783C618.955 191.874 619.787 194.242 619.787 196.887C619.787 199.149 619.19 201.197 617.995 203.031C616.843 204.823 615.158 206.253 612.939 207.319C610.72 208.343 608.139 208.855 605.195 208.855H587.403V164.375H604.363C607.392 164.375 609.995 164.887 612.171 165.911C614.347 166.935 615.99 168.322 617.099 170.071C618.208 171.778 618.763 173.698 618.763 175.831C618.763 178.391 618.08 180.525 616.715 182.231C615.35 183.938 613.515 185.197 611.211 186.007ZM594.699 183.063H603.723C606.112 183.063 607.968 182.53 609.291 181.463C610.656 180.354 611.339 178.775 611.339 176.727C611.339 174.722 610.656 173.165 609.291 172.055C607.968 170.903 606.112 170.327 603.723 170.327H594.699V183.063ZM604.555 202.903C607.03 202.903 608.971 202.306 610.379 201.111C611.787 199.917 612.491 198.253 612.491 196.119C612.491 193.943 611.744 192.215 610.251 190.935C608.758 189.655 606.774 189.015 604.299 189.015H594.699V202.903H604.555ZM633.732 178.711C634.798 176.919 636.206 175.533 637.956 174.551C639.748 173.527 641.86 173.015 644.292 173.015V180.567H642.436C639.577 180.567 637.401 181.293 635.908 182.743C634.457 184.194 633.732 186.711 633.732 190.295V208.855H626.436V173.591H633.732V178.711ZM647.286 191.063C647.286 187.522 648.011 184.386 649.462 181.655C650.955 178.925 652.961 176.813 655.478 175.319C658.038 173.783 660.854 173.015 663.926 173.015C666.699 173.015 669.11 173.57 671.158 174.679C673.249 175.746 674.913 177.09 676.15 178.711V173.591H683.51V208.855H676.15V203.607C674.913 205.271 673.227 206.658 671.094 207.767C668.961 208.877 666.529 209.431 663.798 209.431C660.769 209.431 657.995 208.663 655.478 207.127C652.961 205.549 650.955 203.373 649.462 200.599C648.011 197.783 647.286 194.605 647.286 191.063ZM676.15 191.191C676.15 188.759 675.638 186.647 674.614 184.855C673.633 183.063 672.331 181.698 670.71 180.759C669.089 179.821 667.339 179.351 665.462 179.351C663.585 179.351 661.835 179.821 660.214 180.759C658.593 181.655 657.27 182.999 656.246 184.791C655.265 186.541 654.774 188.631 654.774 191.063C654.774 193.495 655.265 195.629 656.246 197.463C657.27 199.298 658.593 200.706 660.214 201.687C661.878 202.626 663.627 203.095 665.462 203.095C667.339 203.095 669.089 202.626 670.71 201.687C672.331 200.749 673.633 199.383 674.614 197.591C675.638 195.757 676.15 193.623 676.15 191.191ZM704.613 209.431C701.84 209.431 699.344 208.941 697.125 207.959C694.949 206.935 693.221 205.57 691.941 203.863C690.661 202.114 689.978 200.173 689.893 198.039H697.445C697.573 199.533 698.277 200.791 699.557 201.815C700.88 202.797 702.522 203.287 704.485 203.287C706.533 203.287 708.112 202.903 709.221 202.135C710.373 201.325 710.949 200.301 710.949 199.063C710.949 197.741 710.309 196.759 709.029 196.119C707.792 195.479 705.808 194.775 703.077 194.007C700.432 193.282 698.277 192.578 696.613 191.895C694.949 191.213 693.498 190.167 692.261 188.759C691.066 187.351 690.469 185.495 690.469 183.191C690.469 181.314 691.024 179.607 692.133 178.071C693.242 176.493 694.821 175.255 696.869 174.359C698.96 173.463 701.349 173.015 704.037 173.015C708.048 173.015 711.269 174.039 713.701 176.087C716.176 178.093 717.498 180.845 717.669 184.343H710.373C710.245 182.765 709.605 181.506 708.453 180.567C707.301 179.629 705.744 179.159 703.781 179.159C701.861 179.159 700.389 179.522 699.365 180.247C698.341 180.973 697.829 181.933 697.829 183.127C697.829 184.066 698.17 184.855 698.853 185.495C699.536 186.135 700.368 186.647 701.349 187.031C702.33 187.373 703.781 187.821 705.701 188.375C708.261 189.058 710.352 189.762 711.973 190.487C713.637 191.17 715.066 192.194 716.261 193.559C717.456 194.925 718.074 196.738 718.117 198.999C718.117 201.005 717.562 202.797 716.453 204.375C715.344 205.954 713.765 207.191 711.717 208.087C709.712 208.983 707.344 209.431 704.613 209.431ZM728.433 168.919C727.11 168.919 726.001 168.471 725.105 167.575C724.209 166.679 723.761 165.57 723.761 164.247C723.761 162.925 724.209 161.815 725.105 160.919C726.001 160.023 727.11 159.575 728.433 159.575C729.713 159.575 730.801 160.023 731.697 160.919C732.593 161.815 733.041 162.925 733.041 164.247C733.041 165.57 732.593 166.679 731.697 167.575C730.801 168.471 729.713 168.919 728.433 168.919ZM732.017 173.591V208.855H724.721V173.591H732.017ZM747.612 161.495V208.855H740.316V161.495H747.612ZM788.231 190.359C788.231 191.682 788.145 192.877 787.975 193.943H761.031C761.244 196.759 762.289 199.021 764.167 200.727C766.044 202.434 768.348 203.287 771.079 203.287C775.004 203.287 777.777 201.645 779.399 198.359H787.271C786.204 201.602 784.263 204.269 781.447 206.359C778.673 208.407 775.217 209.431 771.079 209.431C767.708 209.431 764.679 208.685 761.991 207.191C759.345 205.655 757.255 203.522 755.719 200.791C754.225 198.018 753.479 194.818 753.479 191.191C753.479 187.565 754.204 184.386 755.655 181.655C757.148 178.882 759.217 176.749 761.863 175.255C764.551 173.762 767.623 173.015 771.079 173.015C774.407 173.015 777.372 173.741 779.975 175.191C782.577 176.642 784.604 178.69 786.055 181.335C787.505 183.938 788.231 186.946 788.231 190.359ZM780.615 188.055C780.572 185.367 779.612 183.213 777.735 181.591C775.857 179.97 773.532 179.159 770.759 179.159C768.241 179.159 766.087 179.97 764.295 181.591C762.503 183.17 761.436 185.325 761.095 188.055H780.615ZM797.843 168.919C796.52 168.919 795.411 168.471 794.515 167.575C793.619 166.679 793.171 165.57 793.171 164.247C793.171 162.925 793.619 161.815 794.515 160.919C795.411 160.023 796.52 159.575 797.843 159.575C799.123 159.575 800.211 160.023 801.107 160.919C802.003 161.815 802.451 162.925 802.451 164.247C802.451 165.57 802.003 166.679 801.107 167.575C800.211 168.471 799.123 168.919 797.843 168.919ZM801.427 173.591V208.855H794.131V173.591H801.427ZM817.022 178.711C818.088 176.919 819.496 175.533 821.246 174.551C823.038 173.527 825.15 173.015 827.582 173.015V180.567H825.726C822.867 180.567 820.691 181.293 819.198 182.743C817.747 184.194 817.022 186.711 817.022 190.295V208.855H809.726V173.591H817.022V178.711ZM830.576 191.063C830.576 187.522 831.301 184.386 832.752 181.655C834.245 178.925 836.251 176.813 838.768 175.319C841.328 173.783 844.144 173.015 847.216 173.015C849.989 173.015 852.4 173.57 854.448 174.679C856.539 175.746 858.203 177.09 859.44 178.711V173.591H866.8V208.855H859.44V203.607C858.203 205.271 856.517 206.658 854.384 207.767C852.251 208.877 849.819 209.431 847.088 209.431C844.059 209.431 841.285 208.663 838.768 207.127C836.251 205.549 834.245 203.373 832.752 200.599C831.301 197.783 830.576 194.605 830.576 191.063ZM859.44 191.191C859.44 188.759 858.928 186.647 857.904 184.855C856.923 183.063 855.621 181.698 854 180.759C852.379 179.821 850.629 179.351 848.752 179.351C846.875 179.351 845.125 179.821 843.504 180.759C841.883 181.655 840.56 182.999 839.536 184.791C838.555 186.541 838.064 188.631 838.064 191.063C838.064 193.495 838.555 195.629 839.536 197.463C840.56 199.298 841.883 200.706 843.504 201.687C845.168 202.626 846.917 203.095 848.752 203.095C850.629 203.095 852.379 202.626 854 201.687C855.621 200.749 856.923 199.383 857.904 197.591C858.928 195.757 859.44 193.623 859.44 191.191Z" fill="#4C23E1"/>
</g>
<defs>
<filter id="filter0_d_36_146" x="44.8652" y="60.7432" width="84.416" height="97.4717" filterUnits="userSpaceOnUse" color-interpolation-filters="sRGB">
<feFlood flood-opacity="0" result="BackgroundImageFix"/>
<feColorMatrix in="SourceAlpha" type="matrix" values="0 0 0 0 0 0 0 0 0 0 0 0 0 0 0 0 0 0 127 0" result="hardAlpha"/>
<feOffset dy="4"/>
<feGaussianBlur stdDeviation="2"/>
<feComposite in2="hardAlpha" operator="out"/>
<feColorMatrix type="matrix" values="0 0 0 0 0 0 0 0 0 0 0 0 0 0 0 0 0 0 0.25 0"/>
<feBlend mode="normal" in2="BackgroundImageFix" result="effect1_dropShadow_36_146"/>
<feBlend mode="normal" in="SourceGraphic" in2="effect1_dropShadow_36_146" result="shape"/>
</filter>
<filter id="filter1_d_36_146" x="124.495" y="90.4443" width="72.7676" height="99.5205" filterUnits="userSpaceOnUse" color-interpolation-filters="sRGB">
<feFlood flood-opacity="0" result="BackgroundImageFix"/>
<feColorMatrix in="SourceAlpha" type="matrix" values="0 0 0 0 0 0 0 0 0 0 0 0 0 0 0 0 0 0 127 0" result="hardAlpha"/>
<feOffset dy="4"/>
<feGaussianBlur stdDeviation="2"/>
<feComposite in2="hardAlpha" operator="out"/>
<feColorMatrix type="matrix" values="0 0 0 0 0 0 0 0 0 0 0 0 0 0 0 0 0 0 0.25 0"/>
<feBlend mode="normal" in2="BackgroundImageFix" result="effect1_dropShadow_36_146"/>
<feBlend mode="normal" in="SourceGraphic" in2="effect1_dropShadow_36_146" result="shape"/>
</filter>
<linearGradient id="paint0_linear_36_146" x1="268.83" y1="94.5" x2="559.83" y2="94.5" gradientUnits="userSpaceOnUse">
<stop stop-color="#8A28FB"/>
<stop offset="1" stop-color="#4552FB"/>
</linearGradient>
<linearGradient id="paint1_linear_36_146" x1="-4.87026" y1="0.641598" x2="240" y2="240.642" gradientUnits="userSpaceOnUse">
<stop stop-color="#3D57FB"/>
<stop offset="1" stop-color="#9123FB"/>
</linearGradient>
<clipPath id="clip0_36_146">
<rect width="923" height="242" fill="white"/>
</clipPath>
</defs>
</svg>
