<svg width="1070" height="349" viewBox="0 0 1070 349" fill="none" xmlns="http://www.w3.org/2000/svg">
<path d="M455.136 213.072H438.036L386.586 135.222V213.072H369.486V108.672H386.586L438.036 186.372V108.672H455.136V213.072ZM550.342 169.722C550.342 172.822 550.142 175.622 549.742 178.122H486.592C487.092 184.722 489.542 190.022 493.942 194.022C498.342 198.022 503.742 200.022 510.142 200.022C519.342 200.022 525.842 196.172 529.642 188.472H548.092C545.592 196.072 541.042 202.322 534.442 207.222C527.942 212.022 519.842 214.422 510.142 214.422C502.242 214.422 495.142 212.672 488.842 209.172C482.642 205.572 477.742 200.572 474.142 194.172C470.642 187.672 468.892 180.172 468.892 171.672C468.892 163.172 470.592 155.722 473.992 149.322C477.492 142.822 482.342 137.822 488.542 134.322C494.842 130.822 502.042 129.072 510.142 129.072C517.942 129.072 524.892 130.772 530.992 134.172C537.092 137.572 541.842 142.372 545.242 148.572C548.642 154.672 550.342 161.722 550.342 169.722ZM532.492 164.322C532.392 158.022 530.142 152.972 525.742 149.172C521.342 145.372 515.892 143.472 509.392 143.472C503.492 143.472 498.442 145.372 494.242 149.172C490.042 152.872 487.542 157.922 486.742 164.322H532.492ZM600.02 214.422C592.22 214.422 585.17 212.672 578.87 209.172C572.57 205.572 567.62 200.572 564.02 194.172C560.42 187.672 558.62 180.172 558.62 171.672C558.62 163.272 560.47 155.822 564.17 149.322C567.87 142.822 572.92 137.822 579.32 134.322C585.72 130.822 592.87 129.072 600.77 129.072C608.67 129.072 615.82 130.822 622.22 134.322C628.62 137.822 633.67 142.822 637.37 149.322C641.07 155.822 642.92 163.272 642.92 171.672C642.92 180.072 641.02 187.522 637.22 194.022C633.42 200.522 628.22 205.572 621.62 209.172C615.12 212.672 607.92 214.422 600.02 214.422ZM600.02 199.572C604.42 199.572 608.52 198.522 612.32 196.422C616.22 194.322 619.37 191.172 621.77 186.972C624.17 182.772 625.37 177.672 625.37 171.672C625.37 165.672 624.22 160.622 621.92 156.522C619.62 152.322 616.57 149.172 612.77 147.072C608.97 144.972 604.87 143.922 600.47 143.922C596.07 143.922 591.97 144.972 588.17 147.072C584.47 149.172 581.52 152.322 579.32 156.522C577.12 160.622 576.02 165.672 576.02 171.672C576.02 180.572 578.27 187.472 582.77 192.372C587.37 197.172 593.12 199.572 600.02 199.572Z" fill="url(#paint0_linear_36_154)"/>
<path d="M694.836 214.122C687.836 214.122 681.536 212.922 675.936 210.522C670.336 208.022 665.936 204.522 662.736 200.022C659.536 195.522 657.936 190.272 657.936 184.272H676.236C676.636 188.772 678.386 192.472 681.486 195.372C684.686 198.272 689.136 199.722 694.836 199.722C700.736 199.722 705.336 198.322 708.636 195.522C711.936 192.622 713.586 188.922 713.586 184.422C713.586 180.922 712.536 178.072 710.436 175.872C708.436 173.672 705.886 171.972 702.786 170.772C699.786 169.572 695.586 168.272 690.186 166.872C683.386 165.072 677.836 163.272 673.536 161.472C669.336 159.572 665.736 156.672 662.736 152.772C659.736 148.872 658.236 143.672 658.236 137.172C658.236 131.172 659.736 125.922 662.736 121.422C665.736 116.922 669.936 113.472 675.336 111.072C680.736 108.672 686.986 107.472 694.086 107.472C704.186 107.472 712.436 110.022 718.836 115.122C725.336 120.122 728.936 127.022 729.636 135.822H710.736C710.436 132.022 708.636 128.772 705.336 126.072C702.036 123.372 697.686 122.022 692.286 122.022C687.386 122.022 683.386 123.272 680.286 125.772C677.186 128.272 675.636 131.872 675.636 136.572C675.636 139.772 676.586 142.422 678.486 144.522C680.486 146.522 682.986 148.122 685.986 149.322C688.986 150.522 693.086 151.822 698.286 153.222C705.186 155.122 710.786 157.022 715.086 158.922C719.486 160.822 723.186 163.772 726.186 167.772C729.286 171.672 730.836 176.922 730.836 183.522C730.836 188.822 729.386 193.822 726.486 198.522C723.686 203.222 719.536 207.022 714.036 209.922C708.636 212.722 702.236 214.122 694.836 214.122ZM823.764 169.722C823.764 172.822 823.564 175.622 823.164 178.122H760.014C760.514 184.722 762.964 190.022 767.364 194.022C771.764 198.022 777.164 200.022 783.564 200.022C792.764 200.022 799.264 196.172 803.064 188.472H821.514C819.014 196.072 814.464 202.322 807.864 207.222C801.364 212.022 793.264 214.422 783.564 214.422C775.664 214.422 768.564 212.672 762.264 209.172C756.064 205.572 751.164 200.572 747.564 194.172C744.064 187.672 742.314 180.172 742.314 171.672C742.314 163.172 744.014 155.722 747.414 149.322C750.914 142.822 755.764 137.822 761.964 134.322C768.264 130.822 775.464 129.072 783.564 129.072C791.364 129.072 798.314 130.772 804.414 134.172C810.514 137.572 815.264 142.372 818.664 148.572C822.064 154.672 823.764 161.722 823.764 169.722ZM805.914 164.322C805.814 158.022 803.564 152.972 799.164 149.172C794.764 145.372 789.314 143.472 782.814 143.472C776.914 143.472 771.864 145.372 767.664 149.172C763.464 152.872 760.964 157.922 760.164 164.322H805.914ZM879.292 129.072C885.792 129.072 891.592 130.422 896.692 133.122C901.892 135.822 905.942 139.822 908.842 145.122C911.742 150.422 913.192 156.822 913.192 164.322V213.072H896.242V166.872C896.242 159.472 894.392 153.822 890.692 149.922C886.992 145.922 881.942 143.922 875.542 143.922C869.142 143.922 864.042 145.922 860.242 149.922C856.542 153.822 854.692 159.472 854.692 166.872V213.072H837.592V130.422H854.692V139.872C857.492 136.472 861.042 133.822 865.342 131.922C869.742 130.022 874.392 129.072 879.292 129.072ZM951.954 144.372V190.122C951.954 193.222 952.654 195.472 954.054 196.872C955.554 198.172 958.054 198.822 961.554 198.822H972.054V213.072H958.554C950.854 213.072 944.954 211.272 940.854 207.672C936.754 204.072 934.704 198.222 934.704 190.122V144.372H924.954V130.422H934.704V109.872H951.954V130.422H972.054V144.372H951.954ZM993.514 119.472C990.414 119.472 987.814 118.422 985.714 116.322C983.614 114.222 982.564 111.622 982.564 108.522C982.564 105.422 983.614 102.822 985.714 100.722C987.814 98.6223 990.414 97.5723 993.514 97.5723C996.514 97.5723 999.064 98.6223 1001.16 100.722C1003.26 102.822 1004.31 105.422 1004.31 108.522C1004.31 111.622 1003.26 114.222 1001.16 116.322C999.064 118.422 996.514 119.472 993.514 119.472ZM1001.91 130.422V213.072H984.814V130.422H1001.91Z" fill="#DEDEDE"/>
<rect x="82.5039" y="66.7139" width="240" height="240" rx="60" fill="url(#paint1_linear_36_154)"/>
<g filter="url(#filter0_d_36_154)">
<path d="M207.785 224.86H189.865L149.289 163.548V224.86H131.369V135.388H149.289L189.865 196.828V135.388H207.785V224.86Z" fill="white"/>
</g>
<g filter="url(#filter1_d_36_154)">
<path d="M244.151 256.61C237.921 256.61 232.289 255.543 227.255 253.41C222.305 251.277 218.38 248.205 215.479 244.194C212.577 240.183 211.084 235.447 210.999 229.986H230.199C230.455 233.655 231.735 236.557 234.039 238.69C236.428 240.823 239.671 241.89 243.767 241.89C247.948 241.89 251.233 240.909 253.623 238.946C256.012 236.898 257.207 234.253 257.207 231.01C257.207 228.365 256.396 226.189 254.775 224.482C253.153 222.775 251.105 221.453 248.631 220.514C246.241 219.49 242.913 218.381 238.647 217.186C232.844 215.479 228.108 213.815 224.439 212.194C220.855 210.487 217.74 207.97 215.095 204.642C212.535 201.229 211.255 196.706 211.255 191.074C211.255 185.783 212.577 181.175 215.223 177.25C217.868 173.325 221.58 170.338 226.359 168.29C231.137 166.157 236.599 165.09 242.743 165.09C251.959 165.09 259.425 167.351 265.143 171.874C270.945 176.311 274.145 182.541 274.743 190.562H255.031C254.86 187.49 253.537 184.973 251.063 183.01C248.673 180.962 245.473 179.938 241.463 179.938C237.964 179.938 235.148 180.834 233.015 182.626C230.967 184.418 229.943 187.021 229.943 190.434C229.943 192.823 230.711 194.829 232.247 196.45C233.868 197.986 235.831 199.266 238.135 200.29C240.524 201.229 243.852 202.338 248.119 203.618C253.921 205.325 258.657 207.031 262.327 208.738C265.996 210.445 269.153 213.005 271.799 216.418C274.444 219.831 275.767 224.311 275.767 229.858C275.767 234.637 274.529 239.074 272.055 243.17C269.58 247.266 265.953 250.551 261.175 253.026C256.396 255.415 250.721 256.61 244.151 256.61Z" fill="white"/>
</g>
<path d="M376.938 230.448V274.928H369.642V230.448H376.938ZM403.029 239.088C405.802 239.088 408.277 239.664 410.453 240.816C412.671 241.968 414.399 243.674 415.637 245.936C416.874 248.197 417.493 250.928 417.493 254.128V274.928H410.261V255.216C410.261 252.058 409.471 249.648 407.893 247.984C406.314 246.277 404.159 245.424 401.429 245.424C398.698 245.424 396.522 246.277 394.901 247.984C393.322 249.648 392.533 252.058 392.533 255.216V274.928H385.237V239.664H392.533V243.696C393.727 242.245 395.242 241.114 397.077 240.304C398.954 239.493 400.938 239.088 403.029 239.088ZM440.815 275.504C437.487 275.504 434.479 274.757 431.791 273.264C429.103 271.728 426.991 269.594 425.455 266.864C423.919 264.09 423.151 260.89 423.151 257.264C423.151 253.68 423.941 250.501 425.519 247.728C427.098 244.954 429.253 242.821 431.983 241.328C434.714 239.834 437.765 239.088 441.135 239.088C444.506 239.088 447.557 239.834 450.287 241.328C453.018 242.821 455.173 244.954 456.751 247.728C458.33 250.501 459.119 253.68 459.119 257.264C459.119 260.848 458.309 264.026 456.687 266.8C455.066 269.573 452.847 271.728 450.031 273.264C447.258 274.757 444.186 275.504 440.815 275.504ZM440.815 269.168C442.693 269.168 444.442 268.72 446.063 267.824C447.727 266.928 449.071 265.584 450.095 263.792C451.119 262 451.631 259.824 451.631 257.264C451.631 254.704 451.141 252.549 450.159 250.8C449.178 249.008 447.877 247.664 446.255 246.768C444.634 245.872 442.885 245.424 441.007 245.424C439.13 245.424 437.381 245.872 435.759 246.768C434.181 247.664 432.922 249.008 431.983 250.8C431.045 252.549 430.575 254.704 430.575 257.264C430.575 261.061 431.535 264.005 433.455 266.096C435.418 268.144 437.871 269.168 440.815 269.168ZM478.684 268.4L488.668 239.664H496.412L482.972 274.928H474.268L460.892 239.664H468.7L478.684 268.4ZM498.215 257.136C498.215 253.594 498.94 250.458 500.391 247.728C501.884 244.997 503.889 242.885 506.407 241.392C508.967 239.856 511.783 239.088 514.855 239.088C517.628 239.088 520.039 239.642 522.087 240.752C524.177 241.818 525.841 243.162 527.079 244.784V239.664H534.439V274.928H527.079V269.68C525.841 271.344 524.156 272.73 522.023 273.84C519.889 274.949 517.457 275.504 514.727 275.504C511.697 275.504 508.924 274.736 506.407 273.2C503.889 271.621 501.884 269.445 500.391 266.672C498.94 263.856 498.215 260.677 498.215 257.136ZM527.079 257.264C527.079 254.832 526.567 252.72 525.543 250.928C524.561 249.136 523.26 247.77 521.639 246.832C520.017 245.893 518.268 245.424 516.391 245.424C514.513 245.424 512.764 245.893 511.143 246.832C509.521 247.728 508.199 249.072 507.175 250.864C506.193 252.613 505.703 254.704 505.703 257.136C505.703 259.568 506.193 261.701 507.175 263.536C508.199 265.37 509.521 266.778 511.143 267.76C512.807 268.698 514.556 269.168 516.391 269.168C518.268 269.168 520.017 268.698 521.639 267.76C523.26 266.821 524.561 265.456 525.543 263.664C526.567 261.829 527.079 259.696 527.079 257.264ZM557.59 269.36C561.814 269.36 564.608 267.504 565.974 263.792H573.846C572.907 267.034 571.222 269.701 568.79 271.792C566.4 273.84 563.392 275.034 559.766 275.376V278C562.24 278 564.246 278.576 565.782 279.728C567.318 280.922 568.086 282.586 568.086 284.72C568.086 286.853 567.318 288.538 565.782 289.776C564.246 291.056 562.304 291.696 559.958 291.696H551.51V287.088H558.486C559.68 287.088 560.576 286.917 561.174 286.576C561.771 286.234 562.07 285.616 562.07 284.72C562.07 283.824 561.771 283.205 561.174 282.864C560.576 282.522 559.68 282.352 558.486 282.352H554.966V275.312C552.064 274.97 549.504 274.01 547.286 272.432C545.067 270.81 543.339 268.72 542.102 266.16C540.907 263.557 540.31 260.592 540.31 257.264C540.31 253.637 541.035 250.458 542.486 247.728C543.979 244.954 546.027 242.821 548.63 241.328C551.232 239.834 554.219 239.088 557.59 239.088C561.856 239.088 565.376 240.112 568.15 242.16C570.966 244.165 572.864 247.045 573.846 250.8H565.974C565.334 249.05 564.31 247.685 562.902 246.704C561.494 245.722 559.723 245.232 557.59 245.232C554.603 245.232 552.214 246.298 550.422 248.432C548.672 250.522 547.798 253.466 547.798 257.264C547.798 261.061 548.672 264.026 550.422 266.16C552.214 268.293 554.603 269.36 557.59 269.36ZM577.405 257.136C577.405 253.594 578.13 250.458 579.581 247.728C581.074 244.997 583.079 242.885 585.597 241.392C588.157 239.856 590.973 239.088 594.045 239.088C596.818 239.088 599.229 239.642 601.277 240.752C603.367 241.818 605.031 243.162 606.269 244.784V239.664H613.629V274.928H606.269V269.68C605.031 271.344 603.346 272.73 601.213 273.84C599.079 274.949 596.647 275.504 593.917 275.504C590.887 275.504 588.114 274.736 585.597 273.2C583.079 271.621 581.074 269.445 579.581 266.672C578.13 263.856 577.405 260.677 577.405 257.136ZM606.269 257.264C606.269 254.832 605.757 252.72 604.733 250.928C603.751 249.136 602.45 247.77 600.829 246.832C599.207 245.893 597.458 245.424 595.581 245.424C593.703 245.424 591.954 245.893 590.333 246.832C588.711 247.728 587.389 249.072 586.365 250.864C585.383 252.613 584.893 254.704 584.893 257.136C584.893 259.568 585.383 261.701 586.365 263.536C587.389 265.37 588.711 266.778 590.333 267.76C591.997 268.698 593.746 269.168 595.581 269.168C597.458 269.168 599.207 268.698 600.829 267.76C602.45 266.821 603.751 265.456 604.733 263.664C605.757 261.829 606.269 259.696 606.269 257.264ZM586.301 236.016C586.642 233.541 587.453 231.685 588.733 230.448C590.013 229.168 591.613 228.528 593.533 228.528C594.343 228.528 595.047 228.656 595.645 228.912C596.242 229.168 596.967 229.552 597.821 230.064C598.461 230.49 598.994 230.81 599.421 231.024C599.89 231.237 600.402 231.344 600.957 231.344C601.682 231.344 602.279 231.13 602.749 230.704C603.261 230.234 603.581 229.552 603.709 228.656H607.805C607.463 231.13 606.653 233.008 605.373 234.288C604.093 235.525 602.493 236.144 600.573 236.144C599.762 236.144 599.037 236.016 598.397 235.76C597.757 235.461 597.053 235.056 596.285 234.544C595.517 234.074 594.919 233.754 594.493 233.584C594.109 233.37 593.661 233.264 593.149 233.264C592.423 233.264 591.805 233.498 591.293 233.968C590.823 234.437 590.525 235.12 590.397 236.016H586.301ZM637.228 275.504C633.9 275.504 630.892 274.757 628.204 273.264C625.516 271.728 623.404 269.594 621.868 266.864C620.332 264.09 619.564 260.89 619.564 257.264C619.564 253.68 620.353 250.501 621.932 247.728C623.51 244.954 625.665 242.821 628.396 241.328C631.126 239.834 634.177 239.088 637.548 239.088C640.918 239.088 643.969 239.834 646.7 241.328C649.43 242.821 651.585 244.954 653.164 247.728C654.742 250.501 655.532 253.68 655.532 257.264C655.532 260.848 654.721 264.026 653.1 266.8C651.478 269.573 649.26 271.728 646.444 273.264C643.67 274.757 640.598 275.504 637.228 275.504ZM637.228 269.168C639.105 269.168 640.854 268.72 642.476 267.824C644.14 266.928 645.484 265.584 646.508 263.792C647.532 262 648.044 259.824 648.044 257.264C648.044 254.704 647.553 252.549 646.572 250.8C645.59 249.008 644.289 247.664 642.668 246.768C641.046 245.872 639.297 245.424 637.42 245.424C635.542 245.424 633.793 245.872 632.172 246.768C630.593 247.664 629.334 249.008 628.396 250.8C627.457 252.549 626.988 254.704 626.988 257.264C626.988 261.061 627.948 264.005 629.868 266.096C631.83 268.144 634.284 269.168 637.228 269.168ZM700.617 252.08C703.007 252.506 705.033 253.765 706.697 255.856C708.361 257.946 709.193 260.314 709.193 262.96C709.193 265.221 708.596 267.269 707.401 269.104C706.249 270.896 704.564 272.325 702.345 273.392C700.127 274.416 697.545 274.928 694.601 274.928H676.809V230.448H693.769C696.799 230.448 699.401 230.96 701.577 231.984C703.753 233.008 705.396 234.394 706.505 236.144C707.615 237.85 708.169 239.77 708.169 241.904C708.169 244.464 707.487 246.597 706.121 248.304C704.756 250.01 702.921 251.269 700.617 252.08ZM684.105 249.136H693.129C695.519 249.136 697.375 248.602 698.697 247.536C700.063 246.426 700.745 244.848 700.745 242.8C700.745 240.794 700.063 239.237 698.697 238.128C697.375 236.976 695.519 236.4 693.129 236.4H684.105V249.136ZM693.961 268.976C696.436 268.976 698.377 268.378 699.785 267.184C701.193 265.989 701.897 264.325 701.897 262.192C701.897 260.016 701.151 258.288 699.657 257.008C698.164 255.728 696.18 255.088 693.705 255.088H684.105V268.976H693.961ZM723.138 244.784C724.204 242.992 725.612 241.605 727.362 240.624C729.154 239.6 731.266 239.088 733.698 239.088V246.64H731.842C728.983 246.64 726.807 247.365 725.314 248.816C723.863 250.266 723.138 252.784 723.138 256.368V274.928H715.842V239.664H723.138V244.784ZM736.692 257.136C736.692 253.594 737.418 250.458 738.868 247.728C740.362 244.997 742.367 242.885 744.884 241.392C747.444 239.856 750.26 239.088 753.332 239.088C756.106 239.088 758.516 239.642 760.564 240.752C762.655 241.818 764.319 243.162 765.556 244.784V239.664H772.916V274.928H765.556V269.68C764.319 271.344 762.634 272.73 760.5 273.84C758.367 274.949 755.935 275.504 753.204 275.504C750.175 275.504 747.402 274.736 744.884 273.2C742.367 271.621 740.362 269.445 738.868 266.672C737.418 263.856 736.692 260.677 736.692 257.136ZM765.556 257.264C765.556 254.832 765.044 252.72 764.02 250.928C763.039 249.136 761.738 247.77 760.116 246.832C758.495 245.893 756.746 245.424 754.868 245.424C752.991 245.424 751.242 245.893 749.62 246.832C747.999 247.728 746.676 249.072 745.652 250.864C744.671 252.613 744.18 254.704 744.18 257.136C744.18 259.568 744.671 261.701 745.652 263.536C746.676 265.37 747.999 266.778 749.62 267.76C751.284 268.698 753.034 269.168 754.868 269.168C756.746 269.168 758.495 268.698 760.116 267.76C761.738 266.821 763.039 265.456 764.02 263.664C765.044 261.829 765.556 259.696 765.556 257.264ZM794.019 275.504C791.246 275.504 788.75 275.013 786.531 274.032C784.355 273.008 782.627 271.642 781.347 269.936C780.067 268.186 779.385 266.245 779.299 264.112H786.851C786.979 265.605 787.683 266.864 788.963 267.888C790.286 268.869 791.929 269.36 793.891 269.36C795.939 269.36 797.518 268.976 798.627 268.208C799.779 267.397 800.355 266.373 800.355 265.136C800.355 263.813 799.715 262.832 798.435 262.192C797.198 261.552 795.214 260.848 792.483 260.08C789.838 259.354 787.683 258.65 786.019 257.968C784.355 257.285 782.905 256.24 781.667 254.832C780.473 253.424 779.875 251.568 779.875 249.264C779.875 247.386 780.43 245.68 781.539 244.144C782.649 242.565 784.227 241.328 786.275 240.432C788.366 239.536 790.755 239.088 793.443 239.088C797.454 239.088 800.675 240.112 803.107 242.16C805.582 244.165 806.905 246.917 807.075 250.416H799.779C799.651 248.837 799.011 247.578 797.859 246.64C796.707 245.701 795.15 245.232 793.187 245.232C791.267 245.232 789.795 245.594 788.771 246.32C787.747 247.045 787.235 248.005 787.235 249.2C787.235 250.138 787.577 250.928 788.259 251.568C788.942 252.208 789.774 252.72 790.755 253.104C791.737 253.445 793.187 253.893 795.107 254.448C797.667 255.13 799.758 255.834 801.379 256.56C803.043 257.242 804.473 258.266 805.667 259.632C806.862 260.997 807.481 262.81 807.523 265.072C807.523 267.077 806.969 268.869 805.859 270.448C804.75 272.026 803.171 273.264 801.123 274.16C799.118 275.056 796.75 275.504 794.019 275.504ZM817.839 234.992C816.516 234.992 815.407 234.544 814.511 233.648C813.615 232.752 813.167 231.642 813.167 230.32C813.167 228.997 813.615 227.888 814.511 226.992C815.407 226.096 816.516 225.648 817.839 225.648C819.119 225.648 820.207 226.096 821.103 226.992C821.999 227.888 822.447 228.997 822.447 230.32C822.447 231.642 821.999 232.752 821.103 233.648C820.207 234.544 819.119 234.992 817.839 234.992ZM821.423 239.664V274.928H814.127V239.664H821.423ZM837.018 227.568V274.928H829.722V227.568H837.018ZM877.637 256.432C877.637 257.754 877.551 258.949 877.381 260.016H850.437C850.65 262.832 851.695 265.093 853.573 266.8C855.45 268.506 857.754 269.36 860.485 269.36C864.41 269.36 867.183 267.717 868.805 264.432H876.677C875.61 267.674 873.669 270.341 870.853 272.432C868.079 274.48 864.623 275.504 860.485 275.504C857.114 275.504 854.085 274.757 851.397 273.264C848.751 271.728 846.661 269.594 845.125 266.864C843.631 264.09 842.885 260.89 842.885 257.264C842.885 253.637 843.61 250.458 845.061 247.728C846.554 244.954 848.623 242.821 851.269 241.328C853.957 239.834 857.029 239.088 860.485 239.088C863.813 239.088 866.778 239.813 869.381 241.264C871.983 242.714 874.01 244.762 875.461 247.408C876.911 250.01 877.637 253.018 877.637 256.432ZM870.021 254.128C869.978 251.44 869.018 249.285 867.141 247.664C865.263 246.042 862.938 245.232 860.165 245.232C857.647 245.232 855.493 246.042 853.701 247.664C851.909 249.242 850.842 251.397 850.501 254.128H870.021ZM887.249 234.992C885.926 234.992 884.817 234.544 883.921 233.648C883.025 232.752 882.577 231.642 882.577 230.32C882.577 228.997 883.025 227.888 883.921 226.992C884.817 226.096 885.926 225.648 887.249 225.648C888.529 225.648 889.617 226.096 890.513 226.992C891.409 227.888 891.857 228.997 891.857 230.32C891.857 231.642 891.409 232.752 890.513 233.648C889.617 234.544 888.529 234.992 887.249 234.992ZM890.833 239.664V274.928H883.537V239.664H890.833ZM906.428 244.784C907.494 242.992 908.902 241.605 910.652 240.624C912.444 239.6 914.556 239.088 916.988 239.088V246.64H915.132C912.273 246.64 910.097 247.365 908.604 248.816C907.153 250.266 906.428 252.784 906.428 256.368V274.928H899.132V239.664H906.428V244.784ZM919.982 257.136C919.982 253.594 920.708 250.458 922.158 247.728C923.652 244.997 925.657 242.885 928.174 241.392C930.734 239.856 933.55 239.088 936.622 239.088C939.396 239.088 941.806 239.642 943.854 240.752C945.945 241.818 947.609 243.162 948.846 244.784V239.664H956.206V274.928H948.846V269.68C947.609 271.344 945.924 272.73 943.79 273.84C941.657 274.949 939.225 275.504 936.494 275.504C933.465 275.504 930.692 274.736 928.174 273.2C925.657 271.621 923.652 269.445 922.158 266.672C920.708 263.856 919.982 260.677 919.982 257.136ZM948.846 257.264C948.846 254.832 948.334 252.72 947.31 250.928C946.329 249.136 945.028 247.77 943.406 246.832C941.785 245.893 940.036 245.424 938.158 245.424C936.281 245.424 934.532 245.893 932.91 246.832C931.289 247.728 929.966 249.072 928.942 250.864C927.961 252.613 927.47 254.704 927.47 257.136C927.47 259.568 927.961 261.701 928.942 263.536C929.966 265.37 931.289 266.778 932.91 267.76C934.574 268.698 936.324 269.168 938.158 269.168C940.036 269.168 941.785 268.698 943.406 267.76C945.028 266.821 946.329 265.456 947.31 263.664C948.334 261.829 948.846 259.696 948.846 257.264Z" fill="#BC7EFF"/>
<defs>
<filter id="filter0_d_36_154" x="127.369" y="135.389" width="84.416" height="97.4717" filterUnits="userSpaceOnUse" color-interpolation-filters="sRGB">
<feFlood flood-opacity="0" result="BackgroundImageFix"/>
<feColorMatrix in="SourceAlpha" type="matrix" values="0 0 0 0 0 0 0 0 0 0 0 0 0 0 0 0 0 0 127 0" result="hardAlpha"/>
<feOffset dy="4"/>
<feGaussianBlur stdDeviation="2"/>
<feComposite in2="hardAlpha" operator="out"/>
<feColorMatrix type="matrix" values="0 0 0 0 0 0 0 0 0 0 0 0 0 0 0 0 0 0 0.25 0"/>
<feBlend mode="normal" in2="BackgroundImageFix" result="effect1_dropShadow_36_154"/>
<feBlend mode="normal" in="SourceGraphic" in2="effect1_dropShadow_36_154" result="shape"/>
</filter>
<filter id="filter1_d_36_154" x="206.999" y="165.09" width="72.7676" height="99.5205" filterUnits="userSpaceOnUse" color-interpolation-filters="sRGB">
<feFlood flood-opacity="0" result="BackgroundImageFix"/>
<feColorMatrix in="SourceAlpha" type="matrix" values="0 0 0 0 0 0 0 0 0 0 0 0 0 0 0 0 0 0 127 0" result="hardAlpha"/>
<feOffset dy="4"/>
<feGaussianBlur stdDeviation="2"/>
<feComposite in2="hardAlpha" operator="out"/>
<feColorMatrix type="matrix" values="0 0 0 0 0 0 0 0 0 0 0 0 0 0 0 0 0 0 0.25 0"/>
<feBlend mode="normal" in2="BackgroundImageFix" result="effect1_dropShadow_36_154"/>
<feBlend mode="normal" in="SourceGraphic" in2="effect1_dropShadow_36_154" result="shape"/>
</filter>
<linearGradient id="paint0_linear_36_154" x1="358.236" y1="160.572" x2="649.236" y2="160.572" gradientUnits="userSpaceOnUse">
<stop stop-color="#C07CFF"/>
<stop offset="1" stop-color="#55A2FF"/>
</linearGradient>
<linearGradient id="paint1_linear_36_154" x1="77.6336" y1="66.7139" x2="322.504" y2="306.714" gradientUnits="userSpaceOnUse">
<stop stop-color="#3D57FB"/>
<stop offset="1" stop-color="#9123FB"/>
</linearGradient>
</defs>
</svg>
