<svg width="857" height="251" viewBox="0 0 857 251" fill="none" xmlns="http://www.w3.org/2000/svg">
<g clip-path="url(#clip0_34_5)">
<path d="M32 70.0001C41.5494 69.9383 51.0988 69.8764 60.9375 69.8126C63.9358 69.7853 66.9341 69.758 70.0232 69.7299C72.4204 69.7211 74.8176 69.7135 77.2148 69.7072C78.4427 69.6918 79.6706 69.6765 80.9357 69.6606C91.5549 69.6574 100.246 71.3604 108 79.0001C113.753 85.5505 114.942 91.8184 114.594 100.43C113.425 107.457 109.244 112.361 104 117C104.887 117.536 105.774 118.073 106.688 118.625C112.16 122.303 116.439 127.515 118 134C119.005 142.776 117.968 149.938 112.457 156.969C107.468 162.358 100.705 166.733 93.2095 167.158C92.0793 167.174 90.949 167.189 89.7844 167.205C87.8359 167.236 87.8359 167.236 85.848 167.267C84.4677 167.283 83.0874 167.3 81.707 167.317C80.4519 167.335 79.1968 167.354 77.9037 167.373C73.2067 167.441 68.5096 167.502 63.8125 167.563C53.3144 167.707 42.8162 167.851 32 168C32 135.66 32 103.32 32 70.0001ZM53 89.0001C53 95.2701 53 101.54 53 108C57.6087 108.069 62.2156 108.129 66.8245 108.165C68.3909 108.18 69.9574 108.2 71.5237 108.226C73.7802 108.263 76.0362 108.28 78.293 108.293C78.989 108.309 79.685 108.324 80.4021 108.34C84.7938 108.342 87.4893 107.655 91 105C93.0692 102.367 92.9993 100.962 92.9375 97.5626C91.7899 93.2017 90.5299 91.7741 87 89.0001C84.144 88.5606 81.9095 88.4099 79.0742 88.5118C78.3266 88.5189 77.579 88.526 76.8088 88.5333C74.434 88.5611 72.0616 88.6239 69.6875 88.6876C68.0723 88.7127 66.4571 88.7355 64.8418 88.756C60.8929 88.8067 56.9491 88.9045 53 89.0001ZM53 127C52.9711 130.646 52.9532 134.292 52.9375 137.938C52.9291 138.979 52.9207 140.019 52.9121 141.092C52.9089 142.081 52.9057 143.071 52.9023 144.09C52.8971 145.006 52.8919 145.923 52.8865 146.867C52.7608 148.984 52.7608 148.984 54 150C56.3782 150.126 58.7258 150.189 61.1055 150.203C61.8223 150.209 62.5391 150.215 63.2777 150.221C64.8001 150.23 66.3225 150.237 67.845 150.24C70.1607 150.25 72.4755 150.281 74.791 150.313C76.2708 150.319 77.7506 150.324 79.2305 150.328C79.9182 150.341 80.6059 150.353 81.3145 150.366C86.7783 150.341 90.7406 148.958 94.875 145.375C96.6578 141.611 96.7754 138.075 96 134C94.281 130.931 92.1929 128.597 89 127C86.3011 126.913 83.6283 126.885 80.9297 126.902C80.1335 126.904 79.3372 126.905 78.5169 126.907C75.9695 126.912 73.4223 126.925 70.875 126.938C69.1497 126.943 67.4245 126.947 65.6992 126.951C61.4661 126.962 57.2331 126.98 53 127Z" fill="black"/>
<path d="M237.813 69.5624C239.015 69.5167 240.217 69.4709 241.455 69.4238C250.238 69.3111 250.238 69.3111 253.551 72.3046C254.029 73.5241 254.507 74.7435 255 75.9999C255.49 77.202 255.49 77.202 255.991 78.4284C257.189 81.4507 258.285 84.4993 259.375 87.5624C260.254 89.9836 261.134 92.4041 262.016 94.8242C262.249 95.4683 262.483 96.1124 262.724 96.776C265.777 105.173 268.956 113.522 272.125 121.875C272.73 123.472 273.335 125.069 273.94 126.666C276.486 133.386 279.037 140.104 281.602 146.816C281.973 147.788 282.344 148.759 282.726 149.76C283.38 151.47 284.035 153.179 284.692 154.888C286.227 158.897 287.679 162.914 289 167C284.375 168.177 279.921 168.114 275.188 168.062C274.005 168.056 274.005 168.056 272.799 168.049C270.866 168.037 268.933 168.019 267 168C264.106 162.476 261.842 157.034 259.875 151.125C257.107 143.005 254.112 134.994 251 127C246.755 116.08 242.78 105.089 239 93.9999C236.943 96.0566 236.437 97.132 235.488 99.8071C235.208 100.588 234.928 101.368 234.639 102.173C234.343 103.015 234.047 103.858 233.742 104.727C233.434 105.589 233.126 106.452 232.809 107.341C231.826 110.101 230.85 112.863 229.875 115.625C229.21 117.495 228.545 119.365 227.879 121.234C226.247 125.821 224.622 130.41 223 135C223.66 134.67 224.32 134.34 225 134C226.668 133.916 228.338 133.893 230.008 133.902C230.994 133.906 231.98 133.909 232.996 133.912C234.029 133.92 235.061 133.929 236.125 133.937C237.685 133.944 237.685 133.944 239.277 133.951C241.852 133.963 244.426 133.979 247 134C247 138.803 245.989 140.638 243.081 144.324C238.983 147.624 234.132 146.821 229.125 146.5C228.055 146.464 226.985 146.428 225.883 146.391C223.252 146.297 220.628 146.165 218 146C217.72 147.177 217.441 148.354 217.152 149.566C216.179 153.451 214.969 157.184 213.563 160.937C213.151 162.06 212.74 163.183 212.316 164.34C211.665 165.657 211.665 165.657 211 167C208.176 167.941 206.471 168.117 203.551 168.098C202.703 168.094 201.856 168.091 200.982 168.088C199.661 168.075 199.661 168.075 198.313 168.062C197.42 168.058 196.527 168.053 195.607 168.049C193.405 168.037 191.203 168.021 189 168C188 166 188 166 188.905 163.128C189.385 161.905 189.865 160.682 190.359 159.422C190.62 158.751 190.88 158.081 191.148 157.39C191.713 155.936 192.281 154.484 192.852 153.032C194.373 149.167 195.868 145.292 197.367 141.418C197.673 140.628 197.98 139.839 198.295 139.026C201.246 131.404 204.077 123.741 206.875 116.062C207.326 114.827 207.777 113.592 208.242 112.32C209.496 108.881 210.749 105.44 212 102C223.719 69.7795 223.719 69.7795 237.813 69.5624Z" fill="black"/>
<path d="M41.5321 183.873C42.516 183.87 43.4999 183.867 44.5136 183.864C45.606 183.866 46.6985 183.869 47.824 183.871C48.9726 183.869 50.1213 183.867 51.3047 183.865C54.4965 183.862 57.6883 183.863 60.8801 183.866C63.5971 183.868 66.314 183.866 69.0309 183.864C77.1295 183.859 85.228 183.864 93.3266 183.871C97.9175 183.875 102.508 183.877 107.099 183.879C148.039 183.895 188.976 184.031 229.914 184.406C233.383 184.438 236.851 184.467 240.32 184.497C245.711 184.543 251.101 184.595 256.492 184.653C258.452 184.673 260.413 184.692 262.373 184.709C265.015 184.733 267.657 184.763 270.298 184.795C271.462 184.803 271.462 184.803 272.649 184.812C277.886 184.886 277.886 184.886 279 186C279.136 189.663 279.165 192.506 278 196C254.085 197.241 230.158 197.251 206.217 197.369C202.693 197.387 199.168 197.406 195.644 197.425C183.335 197.492 171.027 197.554 158.718 197.613C147.255 197.667 135.793 197.732 124.331 197.802C114.455 197.862 104.58 197.914 94.7038 197.96C88.8188 197.987 82.9337 198.018 77.0487 198.057C71.5393 198.093 66.03 198.119 60.5205 198.138C58.496 198.147 56.4714 198.159 54.4469 198.174C51.6945 198.195 48.9423 198.204 46.1899 198.209C45.3808 198.218 44.5717 198.227 43.738 198.237C38.2283 198.228 38.2283 198.228 36 196C35.7696 193.434 35.7696 193.434 35.8125 190.437C35.819 189.446 35.8254 188.455 35.8321 187.434C36.1209 183.25 37.774 183.875 41.5321 183.873Z" fill="black"/>
<path d="M147 70C154.26 70 161.52 70 169 70C169 102.34 169 134.68 169 168C161.74 168 154.48 168 147 168C147 135.66 147 103.32 147 70Z" fill="black"/>
<path d="M341 62C346.39 61.9254 351.779 61.8712 357.168 61.8353C358.999 61.8202 360.829 61.7998 362.659 61.7737C365.303 61.737 367.946 61.7202 370.59 61.7071C371.8 61.6839 371.8 61.6839 373.034 61.6602C381.338 61.6577 388.684 63.9172 395.207 69.125C401.318 75.5158 403.354 83.9318 403.211 92.5391C402.52 100.606 399.554 107.134 394 113C389.681 116.584 386.493 117.332 381 118C382.951 121.359 384.911 124.712 386.875 128.063C387.459 129.061 388.043 130.059 388.645 131.088C392.552 137.708 396.618 144.158 401.191 150.342C403.134 153.086 404.043 154.486 403.758 157.902C403.383 158.941 403.383 158.941 403 160C400.742 159.836 400.742 159.836 398 159C396.008 156.664 396.008 156.664 394.125 153.625C393.434 152.529 392.743 151.434 392.031 150.305C391.361 149.214 390.691 148.124 390 147C388.3 144.349 386.596 141.706 384.844 139.09C383.371 136.621 382.301 134.39 381.219 131.754C378.209 125.031 378.209 125.031 373 120C364.71 117.969 356.428 119.29 348 120C347.67 133.53 347.34 147.06 347 161C345.02 161.495 345.02 161.495 343 162C342.01 161.34 341.02 160.68 340 160C339.709 156.931 339.612 154.063 339.644 150.992C339.642 150.059 339.64 149.125 339.638 148.164C339.635 145.067 339.653 141.971 339.672 138.875C339.675 136.73 339.677 134.586 339.678 132.441C339.682 127.942 339.697 123.443 339.719 118.943C339.747 113.166 339.758 107.389 339.763 101.611C339.767 97.1813 339.777 92.7513 339.788 88.3214C339.794 86.1907 339.799 84.0599 339.803 81.9292C339.81 78.9554 339.823 75.9816 339.839 73.0079C339.84 72.1205 339.841 71.2332 339.842 70.319C339.885 64.2294 339.885 64.2294 341 62ZM348 69C347.09 71.7311 346.878 73.299 346.887 76.1043C346.887 76.9249 346.887 77.7455 346.887 78.591C346.892 79.4724 346.897 80.3537 346.903 81.2618C346.904 82.1676 346.905 83.0734 346.907 84.0066C346.912 86.9003 346.925 89.7939 346.938 92.6875C346.943 94.6491 346.947 96.6107 346.951 98.5723C346.962 103.382 346.98 108.191 347 113C351.553 113.1 356.106 113.172 360.66 113.22C362.206 113.24 363.752 113.267 365.298 113.302C378.593 113.639 378.593 113.639 390.024 107.289C394.81 101.396 396.504 96.2775 396.309 88.6563C395.582 82.3977 393.403 76.8982 388.813 72.5C381.469 67.173 372.395 67.7111 363.688 67.8125C362.617 67.8132 361.547 67.8138 360.444 67.8145C354.108 67.6477 354.108 67.6477 348 69Z" fill="black"/>
<path d="M557.14 61.7967C557.859 61.791 558.578 61.7853 559.318 61.7794C560.848 61.7699 562.378 61.7634 563.908 61.7596C566.199 61.75 568.49 61.7191 570.781 61.6873C586.243 61.5743 599.934 63.4417 611.812 74.2498C621.374 84.4885 623.096 98.5307 623 112C622.849 115.303 622.577 118.584 622.25 121.875C622.176 122.647 622.102 123.419 622.026 124.214C620.884 134.19 617.58 145.022 610 152C596.545 161.338 579.997 160.075 564.312 160.125C562.753 160.132 562.753 160.132 561.162 160.139C560.176 160.137 559.191 160.135 558.176 160.133C557.298 160.131 556.421 160.13 555.517 160.129C552.924 159.996 550.537 159.532 548 159C547.05 140.563 546.841 122.163 546.869 103.708C546.875 99.8854 546.872 96.0628 546.866 92.2402C546.862 89.2608 546.863 86.2814 546.866 83.302C546.867 81.8903 546.866 80.4785 546.864 79.0667C546.861 77.1137 546.866 75.1606 546.87 73.2076C546.871 72.1016 546.872 70.9956 546.873 69.8562C546.983 67.3704 547.141 65.3298 548 62.9998C550.938 61.5306 553.918 61.8165 557.14 61.7967ZM554 68.9998C554 96.7198 554 124.44 554 153C582.328 155.961 582.328 155.961 607.656 145.648C617.763 133.249 617.046 113.963 615.722 98.8279C614.311 89.3138 610.369 81.2714 603.297 74.6912C593.485 67.4659 580.839 67.8245 569.187 67.8748C568.273 67.8709 567.358 67.8671 566.416 67.8631C565.53 67.8644 564.643 67.8657 563.73 67.867C562.545 67.8687 562.545 67.8687 561.336 67.8704C558.534 67.9703 558.534 67.9703 554 68.9998Z" fill="black"/>
<path d="M777.754 61.8321C778.529 61.8288 779.303 61.8255 780.102 61.8221C781.747 61.817 783.392 61.8147 785.037 61.8148C787.528 61.8126 790.019 61.7945 792.51 61.7755C814.839 61.693 814.839 61.693 824 70.0001C829.639 77.1765 831.37 85.6583 830.875 94.6251C829.937 102.342 826.983 107.969 821 113C816.155 116.516 811.832 118.461 806 120C810.911 128.091 815.952 136.083 821.142 143.998C829 156.037 829 156.037 829 159C826.525 159.495 826.525 159.495 824 160C819.213 154.606 815.399 148.679 811.5 142.625C810.849 141.622 810.198 140.619 809.527 139.586C808.26 137.63 806.996 135.67 805.738 133.708C804.641 131.998 803.535 130.294 802.418 128.597C801.96 127.892 801.503 127.187 801.031 126.461C800.635 125.858 800.238 125.255 799.83 124.634C799 123 799 123 799 120C790.75 120 782.5 120 774 120C774.011 122.804 774.023 125.608 774.035 128.496C774.043 131.2 774.049 133.904 774.055 136.608C774.06 138.493 774.067 140.377 774.075 142.262C774.087 144.965 774.093 147.668 774.097 150.371C774.103 151.219 774.108 152.067 774.113 152.941C774.113 154.961 774.062 156.981 774 159C773 160 773 160 770.437 160.063C769.633 160.042 768.829 160.021 768 160C766.994 151.221 766.852 142.512 766.867 133.684C766.866 132.218 766.865 130.752 766.864 129.287C766.863 126.226 766.865 123.166 766.869 120.106C766.875 116.239 766.872 112.372 766.866 108.505C766.827 77.9158 766.827 77.9158 768 63.0001C771.093 61.4538 774.359 61.8372 777.754 61.8321ZM774 69.0001C774 83.8501 774 98.7001 774 114C778.599 114.041 783.199 114.083 787.937 114.125C789.369 114.143 790.801 114.162 792.277 114.18C801.75 114.221 810.326 114.246 818 108C823.884 101.789 824.394 95.3661 824.254 87.129C823.759 81.0321 821.354 76.354 817 72.0001C810.871 68.8802 805.559 67.8744 798.746 67.8673C796.97 67.8654 796.97 67.8654 795.158 67.8634C793.316 67.8692 793.316 67.8692 791.437 67.8751C789.59 67.8693 789.59 67.8693 787.705 67.8634C786.522 67.8647 785.339 67.866 784.121 67.8673C783.043 67.8684 781.964 67.8696 780.853 67.8707C777.775 67.9158 777.775 67.9158 774 69.0001Z" fill="black"/>
<path d="M479 62C483.454 69.2904 485.789 77.6903 488.5 85.75C489.023 87.2915 489.547 88.8328 490.071 90.3741C491.724 95.246 493.364 100.122 495 105C495.409 106.219 495.409 106.219 495.826 107.462C498.895 116.616 501.957 125.773 504.986 134.941C506.123 138.38 507.276 141.813 508.458 145.236C508.691 145.919 508.925 146.602 509.165 147.305C509.807 149.177 510.454 151.047 511.102 152.917C512 156 512 156 512 160C510.02 160 508.04 160 506 160C502.311 151.43 499.146 142.808 496 134C481.48 134 466.96 134 452 134C449.453 141.433 449.453 141.433 446.915 148.868C446.595 149.795 446.275 150.721 445.945 151.676C445.621 152.624 445.296 153.572 444.961 154.548C444 157 444 157 442 160C438.875 160.188 438.875 160.188 436 160C436.587 154.991 437.672 150.416 439.301 145.637C439.533 144.94 439.766 144.243 440.005 143.524C440.768 141.243 441.54 138.965 442.312 136.688C442.851 135.088 443.389 133.489 443.926 131.89C447.661 120.815 451.488 109.772 455.375 98.75C455.615 98.0683 455.855 97.3866 456.103 96.6842C457.716 92.1156 459.349 87.555 461 83C461.257 82.2887 461.514 81.5774 461.779 80.8445C462.568 78.67 463.365 76.4987 464.164 74.3282C464.403 73.6677 464.643 73.0071 464.889 72.3266C469.735 59.2845 469.735 59.2845 479 62ZM473 69C468.494 80.741 464.384 92.6096 460.389 104.533C459.838 106.178 459.285 107.824 458.73 109.468C457.942 111.811 457.159 114.155 456.379 116.5C456.139 117.212 455.898 117.924 455.651 118.657C454.69 121.565 454 123.915 454 127C467.2 127 480.4 127 494 127C492.711 120.556 491.418 114.675 489.32 108.535C489.066 107.776 488.812 107.018 488.551 106.236C487.748 103.843 486.936 101.453 486.125 99.0625C485.589 97.467 485.054 95.8713 484.52 94.2754C483.256 90.5117 481.974 86.7546 480.683 83.0003C480.053 81.1565 479.441 79.3068 478.831 77.4566C478.492 76.459 478.154 75.4614 477.805 74.4336C477.383 73.1641 477.383 73.1641 476.953 71.8689C476.092 69.641 476.092 69.641 473 69Z" fill="black"/>
<path d="M696 62C699.865 66.8807 701.667 72.1237 703.609 77.9883C703.937 78.9561 704.266 79.9238 704.604 80.9209C705.661 84.0486 706.706 87.1803 707.75 90.3125C708.473 92.4619 709.197 94.611 709.921 96.76C714.482 110.322 718.979 123.903 723.236 137.563C724.004 140.013 724.791 142.456 725.582 144.898C726.055 146.37 726.527 147.841 727 149.313C727.392 150.526 727.784 151.739 728.188 152.988C729 156 729 156 729 160C727.35 160 725.7 160 724 160C719.841 151.487 717.032 143.095 714 134C699.15 134 684.3 134 669 134C666.164 141.76 666.164 141.76 663.346 149.527C662.988 150.494 662.631 151.461 662.262 152.457C661.9 153.447 661.539 154.437 661.167 155.456C660.022 157.952 659.273 159.458 657 161C654.899 160.568 654.899 160.568 653 160C654.427 152.923 656.474 146.23 658.816 139.406C659.192 138.302 659.567 137.198 659.954 136.06C660.749 133.722 661.547 131.386 662.347 129.05C663.539 125.568 664.724 122.083 665.908 118.598C669.796 107.177 673.743 95.7762 677.777 84.4063C678.128 83.404 678.479 82.4017 678.84 81.369C684.944 64.3122 684.944 64.3122 688.999 61.7242C691.834 60.6981 693.197 60.8789 696 62ZM691 68C686.118 81.3884 681.332 94.808 676.683 108.279C676.186 109.718 675.688 111.158 675.189 112.597C674.486 114.625 673.787 116.654 673.09 118.684C672.686 119.855 672.283 121.026 671.867 122.232C670.9 124.835 670.9 124.835 671 127C684.53 127 698.06 127 712 127C710.483 119.969 710.483 119.969 708.535 113.142C708.265 112.304 707.994 111.467 707.716 110.604C707.429 109.732 707.143 108.86 706.848 107.961C706.547 107.036 706.246 106.111 705.936 105.158C705.304 103.216 704.669 101.275 704.032 99.334C703.064 96.3781 702.103 93.4197 701.143 90.4609C700.524 88.565 699.905 86.6691 699.285 84.7734C699.001 83.8972 698.716 83.021 698.423 82.1183C696.835 77.2924 695.078 72.6369 693 68C692.34 68 691.68 68 691 68Z" fill="black"/>
<path d="M304 63C305.98 63.495 305.98 63.495 308 64C308 108.55 308 153.1 308 199C306.68 199.33 305.36 199.66 304 200C302.813 193.46 302.859 187.012 302.87 180.379C302.869 179.122 302.867 177.864 302.865 176.568C302.861 173.137 302.862 169.706 302.865 166.274C302.868 162.681 302.866 159.087 302.864 155.493C302.862 149.466 302.865 143.439 302.869 137.412C302.875 130.437 302.873 123.462 302.868 116.487C302.863 110.496 302.862 104.505 302.865 98.5146C302.867 94.9371 302.867 91.3596 302.863 87.782C302.86 83.8028 302.865 79.8235 302.87 75.8442C302.868 74.6526 302.866 73.4609 302.864 72.2332C302.867 71.1565 302.87 70.0798 302.873 68.9705C302.873 68.0292 302.874 67.0879 302.874 66.1181C303 64 303 64 304 63Z" fill="black"/>
</g>
<defs>
<clipPath id="clip0_34_5">
<rect width="857" height="251" fill="white"/>
</clipPath>
</defs>
</svg>
