<svg width="1070" height="349" viewBox="0 0 1070 349" fill="none" xmlns="http://www.w3.org/2000/svg">
<path d="M448.234 213.072H431.134L379.684 135.222V213.072H362.584V108.672H379.684L431.134 186.372V108.672H448.234V213.072ZM543.439 169.722C543.439 172.822 543.239 175.622 542.839 178.122H479.689C480.189 184.722 482.639 190.022 487.039 194.022C491.439 198.022 496.839 200.022 503.239 200.022C512.439 200.022 518.939 196.172 522.739 188.472H541.189C538.689 196.072 534.139 202.322 527.539 207.222C521.039 212.022 512.939 214.422 503.239 214.422C495.339 214.422 488.239 212.672 481.939 209.172C475.739 205.572 470.839 200.572 467.239 194.172C463.739 187.672 461.989 180.172 461.989 171.672C461.989 163.172 463.689 155.722 467.089 149.322C470.589 142.822 475.439 137.822 481.639 134.322C487.939 130.822 495.139 129.072 503.239 129.072C511.039 129.072 517.989 130.772 524.089 134.172C530.189 137.572 534.939 142.372 538.339 148.572C541.739 154.672 543.439 161.722 543.439 169.722ZM525.589 164.322C525.489 158.022 523.239 152.972 518.839 149.172C514.439 145.372 508.989 143.472 502.489 143.472C496.589 143.472 491.539 145.372 487.339 149.172C483.139 152.872 480.639 157.922 479.839 164.322H525.589ZM593.118 214.422C585.318 214.422 578.268 212.672 571.968 209.172C565.668 205.572 560.718 200.572 557.118 194.172C553.518 187.672 551.718 180.172 551.718 171.672C551.718 163.272 553.568 155.822 557.268 149.322C560.968 142.822 566.018 137.822 572.418 134.322C578.818 130.822 585.968 129.072 593.868 129.072C601.768 129.072 608.918 130.822 615.318 134.322C621.718 137.822 626.768 142.822 630.468 149.322C634.168 155.822 636.018 163.272 636.018 171.672C636.018 180.072 634.118 187.522 630.318 194.022C626.518 200.522 621.318 205.572 614.718 209.172C608.218 212.672 601.018 214.422 593.118 214.422ZM593.118 199.572C597.518 199.572 601.618 198.522 605.418 196.422C609.318 194.322 612.468 191.172 614.868 186.972C617.268 182.772 618.468 177.672 618.468 171.672C618.468 165.672 617.318 160.622 615.018 156.522C612.718 152.322 609.668 149.172 605.868 147.072C602.068 144.972 597.968 143.922 593.568 143.922C589.168 143.922 585.068 144.972 581.268 147.072C577.568 149.172 574.618 152.322 572.418 156.522C570.218 160.622 569.118 165.672 569.118 171.672C569.118 180.572 571.368 187.472 575.868 192.372C580.468 197.172 586.218 199.572 593.118 199.572Z" fill="url(#paint0_linear_36_146)"/>
<path d="M687.934 214.122C680.934 214.122 674.634 212.922 669.034 210.522C663.434 208.022 659.034 204.522 655.834 200.022C652.634 195.522 651.034 190.272 651.034 184.272H669.334C669.734 188.772 671.484 192.472 674.584 195.372C677.784 198.272 682.234 199.722 687.934 199.722C693.834 199.722 698.434 198.322 701.734 195.522C705.034 192.622 706.684 188.922 706.684 184.422C706.684 180.922 705.634 178.072 703.534 175.872C701.534 173.672 698.984 171.972 695.884 170.772C692.884 169.572 688.684 168.272 683.284 166.872C676.484 165.072 670.934 163.272 666.634 161.472C662.434 159.572 658.834 156.672 655.834 152.772C652.834 148.872 651.334 143.672 651.334 137.172C651.334 131.172 652.834 125.922 655.834 121.422C658.834 116.922 663.034 113.472 668.434 111.072C673.834 108.672 680.084 107.472 687.184 107.472C697.284 107.472 705.534 110.022 711.934 115.122C718.434 120.122 722.034 127.022 722.734 135.822H703.834C703.534 132.022 701.734 128.772 698.434 126.072C695.134 123.372 690.784 122.022 685.384 122.022C680.484 122.022 676.484 123.272 673.384 125.772C670.284 128.272 668.734 131.872 668.734 136.572C668.734 139.772 669.684 142.422 671.584 144.522C673.584 146.522 676.084 148.122 679.084 149.322C682.084 150.522 686.184 151.822 691.384 153.222C698.284 155.122 703.884 157.022 708.184 158.922C712.584 160.822 716.284 163.772 719.284 167.772C722.384 171.672 723.934 176.922 723.934 183.522C723.934 188.822 722.484 193.822 719.584 198.522C716.784 203.222 712.634 207.022 707.134 209.922C701.734 212.722 695.334 214.122 687.934 214.122ZM816.861 169.722C816.861 172.822 816.661 175.622 816.261 178.122H753.111C753.611 184.722 756.061 190.022 760.461 194.022C764.861 198.022 770.261 200.022 776.661 200.022C785.861 200.022 792.361 196.172 796.161 188.472H814.611C812.111 196.072 807.561 202.322 800.961 207.222C794.461 212.022 786.361 214.422 776.661 214.422C768.761 214.422 761.661 212.672 755.361 209.172C749.161 205.572 744.261 200.572 740.661 194.172C737.161 187.672 735.411 180.172 735.411 171.672C735.411 163.172 737.111 155.722 740.511 149.322C744.011 142.822 748.861 137.822 755.061 134.322C761.361 130.822 768.561 129.072 776.661 129.072C784.461 129.072 791.411 130.772 797.511 134.172C803.611 137.572 808.361 142.372 811.761 148.572C815.161 154.672 816.861 161.722 816.861 169.722ZM799.011 164.322C798.911 158.022 796.661 152.972 792.261 149.172C787.861 145.372 782.411 143.472 775.911 143.472C770.011 143.472 764.961 145.372 760.761 149.172C756.561 152.872 754.061 157.922 753.261 164.322H799.011ZM872.389 129.072C878.889 129.072 884.689 130.422 889.789 133.122C894.989 135.822 899.039 139.822 901.939 145.122C904.839 150.422 906.289 156.822 906.289 164.322V213.072H889.339V166.872C889.339 159.472 887.489 153.822 883.789 149.922C880.089 145.922 875.039 143.922 868.639 143.922C862.239 143.922 857.139 145.922 853.339 149.922C849.639 153.822 847.789 159.472 847.789 166.872V213.072H830.689V130.422H847.789V139.872C850.589 136.472 854.139 133.822 858.439 131.922C862.839 130.022 867.489 129.072 872.389 129.072ZM945.052 144.372V190.122C945.052 193.222 945.752 195.472 947.152 196.872C948.652 198.172 951.152 198.822 954.652 198.822H965.152V213.072H951.652C943.952 213.072 938.052 211.272 933.952 207.672C929.852 204.072 927.802 198.222 927.802 190.122V144.372H918.052V130.422H927.802V109.872H945.052V130.422H965.152V144.372H945.052ZM986.612 119.472C983.512 119.472 980.912 118.422 978.812 116.322C976.712 114.222 975.662 111.622 975.662 108.522C975.662 105.422 976.712 102.822 978.812 100.722C980.912 98.6223 983.512 97.5723 986.612 97.5723C989.612 97.5723 992.162 98.6223 994.262 100.722C996.362 102.822 997.412 105.422 997.412 108.522C997.412 111.622 996.362 114.222 994.262 116.322C992.162 118.422 989.612 119.472 986.612 119.472ZM995.012 130.422V213.072H977.912V130.422H995.012Z" fill="#182337"/>
<rect x="82.5039" y="66.7139" width="240" height="240" rx="60" fill="url(#paint1_linear_36_146)"/>
<g filter="url(#filter0_d_36_146)">
<path d="M207.785 216.287H189.865L149.289 154.975V216.287H131.369V126.815H149.289L189.865 188.255V126.815H207.785V216.287Z" fill="white"/>
</g>
<g filter="url(#filter1_d_36_146)">
<path d="M244.151 248.037C237.921 248.037 232.289 246.97 227.255 244.837C222.305 242.703 218.38 239.631 215.479 235.621C212.577 231.61 211.084 226.874 210.999 221.413H230.199C230.455 225.082 231.735 227.983 234.039 230.117C236.428 232.25 239.671 233.317 243.767 233.317C247.948 233.317 251.233 232.335 253.623 230.373C256.012 228.325 257.207 225.679 257.207 222.437C257.207 219.791 256.396 217.615 254.775 215.909C253.153 214.202 251.105 212.879 248.631 211.941C246.241 210.917 242.913 209.807 238.647 208.613C232.844 206.906 228.108 205.242 224.439 203.621C220.855 201.914 217.74 199.397 215.095 196.069C212.535 192.655 211.255 188.133 211.255 182.501C211.255 177.21 212.577 172.602 215.223 168.677C217.868 164.751 221.58 161.765 226.359 159.717C231.137 157.583 236.599 156.517 242.743 156.517C251.959 156.517 259.425 158.778 265.143 163.301C270.945 167.738 274.145 173.967 274.743 181.989H255.031C254.86 178.917 253.537 176.399 251.063 174.437C248.673 172.389 245.473 171.365 241.463 171.365C237.964 171.365 235.148 172.261 233.015 174.053C230.967 175.845 229.943 178.447 229.943 181.861C229.943 184.25 230.711 186.255 232.247 187.877C233.868 189.413 235.831 190.693 238.135 191.717C240.524 192.655 243.852 193.765 248.119 195.045C253.921 196.751 258.657 198.458 262.327 200.165C265.996 201.871 269.153 204.431 271.799 207.845C274.444 211.258 275.767 215.738 275.767 221.285C275.767 226.063 274.529 230.501 272.055 234.597C269.58 238.693 265.953 241.978 261.175 244.453C256.396 246.842 250.721 248.037 244.151 248.037Z" fill="white"/>
</g>
<path d="M370.035 230.448V274.928H362.739V230.448H370.035ZM396.126 239.088C398.9 239.088 401.374 239.664 403.55 240.816C405.769 241.968 407.497 243.674 408.734 245.936C409.972 248.197 410.59 250.928 410.59 254.128V274.928H403.358V255.216C403.358 252.058 402.569 249.648 400.99 247.984C399.412 246.277 397.257 245.424 394.526 245.424C391.796 245.424 389.62 246.277 387.998 247.984C386.42 249.648 385.63 252.058 385.63 255.216V274.928H378.334V239.664H385.63V243.696C386.825 242.245 388.34 241.114 390.174 240.304C392.052 239.493 394.036 239.088 396.126 239.088ZM433.913 275.504C430.585 275.504 427.577 274.757 424.889 273.264C422.201 271.728 420.089 269.594 418.553 266.864C417.017 264.09 416.249 260.89 416.249 257.264C416.249 253.68 417.038 250.501 418.617 247.728C420.196 244.954 422.35 242.821 425.081 241.328C427.812 239.834 430.862 239.088 434.233 239.088C437.604 239.088 440.654 239.834 443.385 241.328C446.116 242.821 448.27 244.954 449.849 247.728C451.428 250.501 452.217 253.68 452.217 257.264C452.217 260.848 451.406 264.026 449.785 266.8C448.164 269.573 445.945 271.728 443.129 273.264C440.356 274.757 437.284 275.504 433.913 275.504ZM433.913 269.168C435.79 269.168 437.54 268.72 439.161 267.824C440.825 266.928 442.169 265.584 443.193 263.792C444.217 262 444.729 259.824 444.729 257.264C444.729 254.704 444.238 252.549 443.257 250.8C442.276 249.008 440.974 247.664 439.353 246.768C437.732 245.872 435.982 245.424 434.105 245.424C432.228 245.424 430.478 245.872 428.857 246.768C427.278 247.664 426.02 249.008 425.081 250.8C424.142 252.549 423.673 254.704 423.673 257.264C423.673 261.061 424.633 264.005 426.553 266.096C428.516 268.144 430.969 269.168 433.913 269.168ZM471.781 268.4L481.765 239.664H489.509L476.069 274.928H467.365L453.989 239.664H461.797L471.781 268.4ZM491.312 257.136C491.312 253.594 492.038 250.458 493.488 247.728C494.982 244.997 496.987 242.885 499.504 241.392C502.064 239.856 504.88 239.088 507.952 239.088C510.726 239.088 513.136 239.642 515.184 240.752C517.275 241.818 518.939 243.162 520.176 244.784V239.664H527.536V274.928H520.176V269.68C518.939 271.344 517.254 272.73 515.12 273.84C512.987 274.949 510.555 275.504 507.824 275.504C504.795 275.504 502.022 274.736 499.504 273.2C496.987 271.621 494.982 269.445 493.488 266.672C492.038 263.856 491.312 260.677 491.312 257.136ZM520.176 257.264C520.176 254.832 519.664 252.72 518.64 250.928C517.659 249.136 516.358 247.77 514.736 246.832C513.115 245.893 511.366 245.424 509.488 245.424C507.611 245.424 505.862 245.893 504.24 246.832C502.619 247.728 501.296 249.072 500.272 250.864C499.291 252.613 498.8 254.704 498.8 257.136C498.8 259.568 499.291 261.701 500.272 263.536C501.296 265.37 502.619 266.778 504.24 267.76C505.904 268.698 507.654 269.168 509.488 269.168C511.366 269.168 513.115 268.698 514.736 267.76C516.358 266.821 517.659 265.456 518.64 263.664C519.664 261.829 520.176 259.696 520.176 257.264ZM550.687 269.36C554.911 269.36 557.706 267.504 559.071 263.792H566.943C566.005 267.034 564.319 269.701 561.887 271.792C559.498 273.84 556.49 275.034 552.863 275.376V278C555.338 278 557.343 278.576 558.879 279.728C560.415 280.922 561.183 282.586 561.183 284.72C561.183 286.853 560.415 288.538 558.879 289.776C557.343 291.056 555.402 291.696 553.055 291.696H544.607V287.088H551.583C552.778 287.088 553.674 286.917 554.271 286.576C554.869 286.234 555.167 285.616 555.167 284.72C555.167 283.824 554.869 283.205 554.271 282.864C553.674 282.522 552.778 282.352 551.583 282.352H548.063V275.312C545.162 274.97 542.602 274.01 540.383 272.432C538.165 270.81 536.437 268.72 535.199 266.16C534.005 263.557 533.407 260.592 533.407 257.264C533.407 253.637 534.133 250.458 535.583 247.728C537.077 244.954 539.125 242.821 541.727 241.328C544.33 239.834 547.317 239.088 550.687 239.088C554.954 239.088 558.474 240.112 561.247 242.16C564.063 244.165 565.962 247.045 566.943 250.8H559.071C558.431 249.05 557.407 247.685 555.999 246.704C554.591 245.722 552.821 245.232 550.687 245.232C547.701 245.232 545.311 246.298 543.519 248.432C541.77 250.522 540.895 253.466 540.895 257.264C540.895 261.061 541.77 264.026 543.519 266.16C545.311 268.293 547.701 269.36 550.687 269.36ZM570.502 257.136C570.502 253.594 571.228 250.458 572.678 247.728C574.172 244.997 576.177 242.885 578.694 241.392C581.254 239.856 584.07 239.088 587.142 239.088C589.916 239.088 592.326 239.642 594.374 240.752C596.465 241.818 598.129 243.162 599.366 244.784V239.664H606.726V274.928H599.366V269.68C598.129 271.344 596.444 272.73 594.31 273.84C592.177 274.949 589.745 275.504 587.014 275.504C583.985 275.504 581.212 274.736 578.694 273.2C576.177 271.621 574.172 269.445 572.678 266.672C571.228 263.856 570.502 260.677 570.502 257.136ZM599.366 257.264C599.366 254.832 598.854 252.72 597.83 250.928C596.849 249.136 595.548 247.77 593.926 246.832C592.305 245.893 590.556 245.424 588.678 245.424C586.801 245.424 585.052 245.893 583.43 246.832C581.809 247.728 580.486 249.072 579.462 250.864C578.481 252.613 577.99 254.704 577.99 257.136C577.99 259.568 578.481 261.701 579.462 263.536C580.486 265.37 581.809 266.778 583.43 267.76C585.094 268.698 586.844 269.168 588.678 269.168C590.556 269.168 592.305 268.698 593.926 267.76C595.548 266.821 596.849 265.456 597.83 263.664C598.854 261.829 599.366 259.696 599.366 257.264ZM579.398 236.016C579.74 233.541 580.55 231.685 581.83 230.448C583.11 229.168 584.71 228.528 586.63 228.528C587.441 228.528 588.145 228.656 588.742 228.912C589.34 229.168 590.065 229.552 590.918 230.064C591.558 230.49 592.092 230.81 592.518 231.024C592.988 231.237 593.5 231.344 594.054 231.344C594.78 231.344 595.377 231.13 595.846 230.704C596.358 230.234 596.678 229.552 596.806 228.656H600.902C600.561 231.13 599.75 233.008 598.47 234.288C597.19 235.525 595.59 236.144 593.67 236.144C592.86 236.144 592.134 236.016 591.494 235.76C590.854 235.461 590.15 235.056 589.382 234.544C588.614 234.074 588.017 233.754 587.59 233.584C587.206 233.37 586.758 233.264 586.246 233.264C585.521 233.264 584.902 233.498 584.39 233.968C583.921 234.437 583.622 235.12 583.494 236.016H579.398ZM630.325 275.504C626.997 275.504 623.989 274.757 621.301 273.264C618.613 271.728 616.501 269.594 614.965 266.864C613.429 264.09 612.661 260.89 612.661 257.264C612.661 253.68 613.451 250.501 615.029 247.728C616.608 244.954 618.763 242.821 621.493 241.328C624.224 239.834 627.275 239.088 630.645 239.088C634.016 239.088 637.067 239.834 639.797 241.328C642.528 242.821 644.683 244.954 646.261 247.728C647.84 250.501 648.629 253.68 648.629 257.264C648.629 260.848 647.819 264.026 646.197 266.8C644.576 269.573 642.357 271.728 639.541 273.264C636.768 274.757 633.696 275.504 630.325 275.504ZM630.325 269.168C632.203 269.168 633.952 268.72 635.573 267.824C637.237 266.928 638.581 265.584 639.605 263.792C640.629 262 641.141 259.824 641.141 257.264C641.141 254.704 640.651 252.549 639.669 250.8C638.688 249.008 637.387 247.664 635.765 246.768C634.144 245.872 632.395 245.424 630.517 245.424C628.64 245.424 626.891 245.872 625.269 246.768C623.691 247.664 622.432 249.008 621.493 250.8C620.555 252.549 620.085 254.704 620.085 257.264C620.085 261.061 621.045 264.005 622.965 266.096C624.928 268.144 627.381 269.168 630.325 269.168ZM693.715 252.08C696.104 252.506 698.131 253.765 699.795 255.856C701.459 257.946 702.291 260.314 702.291 262.96C702.291 265.221 701.694 267.269 700.499 269.104C699.347 270.896 697.662 272.325 695.443 273.392C693.224 274.416 690.643 274.928 687.699 274.928H669.907V230.448H686.867C689.896 230.448 692.499 230.96 694.675 231.984C696.851 233.008 698.494 234.394 699.603 236.144C700.712 237.85 701.267 239.77 701.267 241.904C701.267 244.464 700.584 246.597 699.219 248.304C697.854 250.01 696.019 251.269 693.715 252.08ZM677.203 249.136H686.227C688.616 249.136 690.472 248.602 691.795 247.536C693.16 246.426 693.843 244.848 693.843 242.8C693.843 240.794 693.16 239.237 691.795 238.128C690.472 236.976 688.616 236.4 686.227 236.4H677.203V249.136ZM687.059 268.976C689.534 268.976 691.475 268.378 692.883 267.184C694.291 265.989 694.995 264.325 694.995 262.192C694.995 260.016 694.248 258.288 692.755 257.008C691.262 255.728 689.278 255.088 686.803 255.088H677.203V268.976H687.059ZM716.235 244.784C717.302 242.992 718.71 241.605 720.459 240.624C722.251 239.6 724.363 239.088 726.795 239.088V246.64H724.939C722.081 246.64 719.905 247.365 718.411 248.816C716.961 250.266 716.235 252.784 716.235 256.368V274.928H708.939V239.664H716.235V244.784ZM729.79 257.136C729.79 253.594 730.515 250.458 731.966 247.728C733.459 244.997 735.465 242.885 737.982 241.392C740.542 239.856 743.358 239.088 746.43 239.088C749.203 239.088 751.614 239.642 753.662 240.752C755.753 241.818 757.417 243.162 758.654 244.784V239.664H766.014V274.928H758.654V269.68C757.417 271.344 755.731 272.73 753.598 273.84C751.465 274.949 749.033 275.504 746.302 275.504C743.273 275.504 740.499 274.736 737.982 273.2C735.465 271.621 733.459 269.445 731.966 266.672C730.515 263.856 729.79 260.677 729.79 257.136ZM758.654 257.264C758.654 254.832 758.142 252.72 757.118 250.928C756.137 249.136 754.835 247.77 753.214 246.832C751.593 245.893 749.843 245.424 747.966 245.424C746.089 245.424 744.339 245.893 742.718 246.832C741.097 247.728 739.774 249.072 738.75 250.864C737.769 252.613 737.278 254.704 737.278 257.136C737.278 259.568 737.769 261.701 738.75 263.536C739.774 265.37 741.097 266.778 742.718 267.76C744.382 268.698 746.131 269.168 747.966 269.168C749.843 269.168 751.593 268.698 753.214 267.76C754.835 266.821 756.137 265.456 757.118 263.664C758.142 261.829 758.654 259.696 758.654 257.264ZM787.117 275.504C784.344 275.504 781.848 275.013 779.629 274.032C777.453 273.008 775.725 271.642 774.445 269.936C773.165 268.186 772.482 266.245 772.397 264.112H779.949C780.077 265.605 780.781 266.864 782.061 267.888C783.384 268.869 785.026 269.36 786.989 269.36C789.037 269.36 790.616 268.976 791.725 268.208C792.877 267.397 793.453 266.373 793.453 265.136C793.453 263.813 792.813 262.832 791.533 262.192C790.296 261.552 788.312 260.848 785.581 260.08C782.936 259.354 780.781 258.65 779.117 257.968C777.453 257.285 776.002 256.24 774.765 254.832C773.57 253.424 772.973 251.568 772.973 249.264C772.973 247.386 773.528 245.68 774.637 244.144C775.746 242.565 777.325 241.328 779.373 240.432C781.464 239.536 783.853 239.088 786.541 239.088C790.552 239.088 793.773 240.112 796.205 242.16C798.68 244.165 800.002 246.917 800.173 250.416H792.877C792.749 248.837 792.109 247.578 790.957 246.64C789.805 245.701 788.248 245.232 786.285 245.232C784.365 245.232 782.893 245.594 781.869 246.32C780.845 247.045 780.333 248.005 780.333 249.2C780.333 250.138 780.674 250.928 781.357 251.568C782.04 252.208 782.872 252.72 783.853 253.104C784.834 253.445 786.285 253.893 788.205 254.448C790.765 255.13 792.856 255.834 794.477 256.56C796.141 257.242 797.57 258.266 798.765 259.632C799.96 260.997 800.578 262.81 800.621 265.072C800.621 267.077 800.066 268.869 798.957 270.448C797.848 272.026 796.269 273.264 794.221 274.16C792.216 275.056 789.848 275.504 787.117 275.504ZM810.936 234.992C809.614 234.992 808.504 234.544 807.608 233.648C806.712 232.752 806.264 231.642 806.264 230.32C806.264 228.997 806.712 227.888 807.608 226.992C808.504 226.096 809.614 225.648 810.936 225.648C812.216 225.648 813.304 226.096 814.2 226.992C815.096 227.888 815.544 228.997 815.544 230.32C815.544 231.642 815.096 232.752 814.2 233.648C813.304 234.544 812.216 234.992 810.936 234.992ZM814.52 239.664V274.928H807.224V239.664H814.52ZM830.115 227.568V274.928H822.819V227.568H830.115ZM870.734 256.432C870.734 257.754 870.649 258.949 870.478 260.016H843.534C843.748 262.832 844.793 265.093 846.67 266.8C848.548 268.506 850.852 269.36 853.582 269.36C857.508 269.36 860.281 267.717 861.902 264.432H869.774C868.708 267.674 866.766 270.341 863.95 272.432C861.177 274.48 857.721 275.504 853.582 275.504C850.212 275.504 847.182 274.757 844.494 273.264C841.849 271.728 839.758 269.594 838.222 266.864C836.729 264.09 835.982 260.89 835.982 257.264C835.982 253.637 836.708 250.458 838.158 247.728C839.652 244.954 841.721 242.821 844.366 241.328C847.054 239.834 850.126 239.088 853.582 239.088C856.91 239.088 859.876 239.813 862.478 241.264C865.081 242.714 867.108 244.762 868.558 247.408C870.009 250.01 870.734 253.018 870.734 256.432ZM863.118 254.128C863.076 251.44 862.116 249.285 860.238 247.664C858.361 246.042 856.036 245.232 853.262 245.232C850.745 245.232 848.59 246.042 846.798 247.664C845.006 249.242 843.94 251.397 843.598 254.128H863.118ZM880.346 234.992C879.024 234.992 877.914 234.544 877.018 233.648C876.122 232.752 875.674 231.642 875.674 230.32C875.674 228.997 876.122 227.888 877.018 226.992C877.914 226.096 879.024 225.648 880.346 225.648C881.626 225.648 882.714 226.096 883.61 226.992C884.506 227.888 884.954 228.997 884.954 230.32C884.954 231.642 884.506 232.752 883.61 233.648C882.714 234.544 881.626 234.992 880.346 234.992ZM883.93 239.664V274.928H876.634V239.664H883.93ZM899.525 244.784C900.592 242.992 902 241.605 903.749 240.624C905.541 239.6 907.653 239.088 910.085 239.088V246.64H908.229C905.371 246.64 903.195 247.365 901.701 248.816C900.251 250.266 899.525 252.784 899.525 256.368V274.928H892.229V239.664H899.525V244.784ZM913.08 257.136C913.08 253.594 913.805 250.458 915.256 247.728C916.749 244.997 918.755 242.885 921.272 241.392C923.832 239.856 926.648 239.088 929.72 239.088C932.493 239.088 934.904 239.642 936.952 240.752C939.043 241.818 940.707 243.162 941.944 244.784V239.664H949.304V274.928H941.944V269.68C940.707 271.344 939.021 272.73 936.888 273.84C934.755 274.949 932.323 275.504 929.592 275.504C926.563 275.504 923.789 274.736 921.272 273.2C918.755 271.621 916.749 269.445 915.256 266.672C913.805 263.856 913.08 260.677 913.08 257.136ZM941.944 257.264C941.944 254.832 941.432 252.72 940.408 250.928C939.427 249.136 938.125 247.77 936.504 246.832C934.883 245.893 933.133 245.424 931.256 245.424C929.379 245.424 927.629 245.893 926.008 246.832C924.387 247.728 923.064 249.072 922.04 250.864C921.059 252.613 920.568 254.704 920.568 257.136C920.568 259.568 921.059 261.701 922.04 263.536C923.064 265.37 924.387 266.778 926.008 267.76C927.672 268.698 929.421 269.168 931.256 269.168C933.133 269.168 934.883 268.698 936.504 267.76C938.125 266.821 939.427 265.456 940.408 263.664C941.432 261.829 941.944 259.696 941.944 257.264Z" fill="#4C23E1"/>
<defs>
<filter id="filter0_d_36_146" x="127.369" y="126.815" width="84.416" height="97.4717" filterUnits="userSpaceOnUse" color-interpolation-filters="sRGB">
<feFlood flood-opacity="0" result="BackgroundImageFix"/>
<feColorMatrix in="SourceAlpha" type="matrix" values="0 0 0 0 0 0 0 0 0 0 0 0 0 0 0 0 0 0 127 0" result="hardAlpha"/>
<feOffset dy="4"/>
<feGaussianBlur stdDeviation="2"/>
<feComposite in2="hardAlpha" operator="out"/>
<feColorMatrix type="matrix" values="0 0 0 0 0 0 0 0 0 0 0 0 0 0 0 0 0 0 0.25 0"/>
<feBlend mode="normal" in2="BackgroundImageFix" result="effect1_dropShadow_36_146"/>
<feBlend mode="normal" in="SourceGraphic" in2="effect1_dropShadow_36_146" result="shape"/>
</filter>
<filter id="filter1_d_36_146" x="206.999" y="156.517" width="72.7676" height="99.5205" filterUnits="userSpaceOnUse" color-interpolation-filters="sRGB">
<feFlood flood-opacity="0" result="BackgroundImageFix"/>
<feColorMatrix in="SourceAlpha" type="matrix" values="0 0 0 0 0 0 0 0 0 0 0 0 0 0 0 0 0 0 127 0" result="hardAlpha"/>
<feOffset dy="4"/>
<feGaussianBlur stdDeviation="2"/>
<feComposite in2="hardAlpha" operator="out"/>
<feColorMatrix type="matrix" values="0 0 0 0 0 0 0 0 0 0 0 0 0 0 0 0 0 0 0.25 0"/>
<feBlend mode="normal" in2="BackgroundImageFix" result="effect1_dropShadow_36_146"/>
<feBlend mode="normal" in="SourceGraphic" in2="effect1_dropShadow_36_146" result="shape"/>
</filter>
<linearGradient id="paint0_linear_36_146" x1="351.334" y1="160.572" x2="642.334" y2="160.572" gradientUnits="userSpaceOnUse">
<stop stop-color="#8A28FB"/>
<stop offset="1" stop-color="#4552FB"/>
</linearGradient>
<linearGradient id="paint1_linear_36_146" x1="77.6336" y1="66.7139" x2="322.504" y2="306.714" gradientUnits="userSpaceOnUse">
<stop stop-color="#3D57FB"/>
<stop offset="1" stop-color="#9123FB"/>
</linearGradient>
</defs>
</svg>
