<svg width="594" height="218" viewBox="0 0 594 218" fill="none" xmlns="http://www.w3.org/2000/svg">
<path d="M99.688 154H85.096L41.192 87.568V154H26.6V64.912H41.192L85.096 131.216V64.912H99.688V154ZM180.93 117.008C180.93 119.653 180.759 122.043 180.418 124.176H126.53C126.957 129.808 129.047 134.331 132.802 137.744C136.557 141.157 141.165 142.864 146.626 142.864C154.477 142.864 160.023 139.579 163.266 133.008H179.01C176.877 139.493 172.994 144.827 167.362 149.008C161.815 153.104 154.903 155.152 146.626 155.152C139.885 155.152 133.826 153.659 128.45 150.672C123.159 147.6 118.978 143.333 115.906 137.872C112.919 132.325 111.426 125.925 111.426 118.672C111.426 111.419 112.877 105.061 115.778 99.6C118.765 94.0533 122.903 89.7867 128.194 86.8C133.57 83.8133 139.714 82.32 146.626 82.32C153.282 82.32 159.213 83.7707 164.418 86.672C169.623 89.5733 173.677 93.6693 176.578 98.96C179.479 104.165 180.93 110.181 180.93 117.008ZM165.698 112.4C165.613 107.024 163.693 102.715 159.938 99.472C156.183 96.2293 151.533 94.608 145.986 94.608C140.951 94.608 136.642 96.2293 133.058 99.472C129.474 102.629 127.341 106.939 126.658 112.4H165.698ZM223.322 155.152C216.666 155.152 210.65 153.659 205.274 150.672C199.898 147.6 195.674 143.333 192.602 137.872C189.53 132.325 187.994 125.925 187.994 118.672C187.994 111.504 189.573 105.147 192.73 99.6C195.887 94.0533 200.197 89.7867 205.658 86.8C211.119 83.8133 217.221 82.32 223.962 82.32C230.703 82.32 236.805 83.8133 242.266 86.8C247.727 89.7867 252.037 94.0533 255.194 99.6C258.351 105.147 259.93 111.504 259.93 118.672C259.93 125.84 258.309 132.197 255.066 137.744C251.823 143.291 247.386 147.6 241.754 150.672C236.207 153.659 230.063 155.152 223.322 155.152ZM223.322 142.48C227.077 142.48 230.575 141.584 233.818 139.792C237.146 138 239.834 135.312 241.882 131.728C243.93 128.144 244.954 123.792 244.954 118.672C244.954 113.552 243.973 109.243 242.01 105.744C240.047 102.16 237.445 99.472 234.202 97.68C230.959 95.888 227.461 94.992 223.706 94.992C219.951 94.992 216.453 95.888 213.21 97.68C210.053 99.472 207.535 102.16 205.658 105.744C203.781 109.243 202.842 113.552 202.842 118.672C202.842 126.267 204.762 132.155 208.602 136.336C212.527 140.432 217.434 142.48 223.322 142.48Z" fill="#1B3B6F"/>
<path d="M303.912 154.896C297.939 154.896 292.563 153.872 287.784 151.824C283.005 149.691 279.251 146.704 276.52 142.864C273.789 139.024 272.424 134.544 272.424 129.424H288.04C288.381 133.264 289.875 136.421 292.52 138.896C295.251 141.371 299.048 142.608 303.912 142.608C308.947 142.608 312.872 141.413 315.688 139.024C318.504 136.549 319.912 133.392 319.912 129.552C319.912 126.565 319.016 124.133 317.224 122.256C315.517 120.379 313.341 118.928 310.696 117.904C308.136 116.88 304.552 115.771 299.944 114.576C294.141 113.04 289.405 111.504 285.736 109.968C282.152 108.347 279.08 105.872 276.52 102.544C273.96 99.216 272.68 94.7787 272.68 89.232C272.68 84.112 273.96 79.632 276.52 75.792C279.08 71.952 282.664 69.008 287.272 66.96C291.88 64.912 297.213 63.888 303.272 63.888C311.891 63.888 318.931 66.064 324.392 70.416C329.939 74.6827 333.011 80.5707 333.608 88.08H317.48C317.224 84.8373 315.688 82.064 312.872 79.76C310.056 77.456 306.344 76.304 301.736 76.304C297.555 76.304 294.141 77.3707 291.496 79.504C288.851 81.6373 287.528 84.7093 287.528 88.72C287.528 91.4507 288.339 93.712 289.96 95.504C291.667 97.2107 293.8 98.576 296.36 99.6C298.92 100.624 302.419 101.733 306.856 102.928C312.744 104.549 317.523 106.171 321.192 107.792C324.947 109.413 328.104 111.931 330.664 115.344C333.309 118.672 334.632 123.152 334.632 128.784C334.632 133.307 333.395 137.573 330.92 141.584C328.531 145.595 324.989 148.837 320.296 151.312C315.688 153.701 310.227 154.896 303.912 154.896ZM413.93 117.008C413.93 119.653 413.759 122.043 413.418 124.176H359.53C359.957 129.808 362.047 134.331 365.802 137.744C369.557 141.157 374.165 142.864 379.626 142.864C387.477 142.864 393.023 139.579 396.266 133.008H412.01C409.877 139.493 405.994 144.827 400.362 149.008C394.815 153.104 387.903 155.152 379.626 155.152C372.885 155.152 366.826 153.659 361.45 150.672C356.159 147.6 351.978 143.333 348.906 137.872C345.919 132.325 344.426 125.925 344.426 118.672C344.426 111.419 345.877 105.061 348.778 99.6C351.765 94.0533 355.903 89.7867 361.194 86.8C366.57 83.8133 372.714 82.32 379.626 82.32C386.282 82.32 392.213 83.7707 397.418 86.672C402.623 89.5733 406.677 93.6693 409.578 98.96C412.479 104.165 413.93 110.181 413.93 117.008ZM398.698 112.4C398.613 107.024 396.693 102.715 392.938 99.472C389.183 96.2293 384.533 94.608 378.986 94.608C373.951 94.608 369.642 96.2293 366.058 99.472C362.474 102.629 360.341 106.939 359.658 112.4H398.698ZM461.314 82.32C466.861 82.32 471.81 83.472 476.162 85.776C480.599 88.08 484.055 91.4933 486.53 96.016C489.005 100.539 490.242 106 490.242 112.4V154H475.778V114.576C475.778 108.261 474.199 103.44 471.042 100.112C467.885 96.6987 463.575 94.992 458.114 94.992C452.653 94.992 448.301 96.6987 445.058 100.112C441.901 103.44 440.322 108.261 440.322 114.576V154H425.73V83.472H440.322V91.536C442.711 88.6347 445.741 86.3733 449.41 84.752C453.165 83.1307 457.133 82.32 461.314 82.32ZM523.319 95.376V134.416C523.319 137.061 523.916 138.981 525.111 140.176C526.391 141.285 528.524 141.84 531.511 141.84H540.471V154H528.951C522.38 154 517.346 152.464 513.847 149.392C510.348 146.32 508.599 141.328 508.599 134.416V95.376H500.279V83.472H508.599V65.936H523.319V83.472H540.471V95.376H523.319ZM558.784 74.128C556.139 74.128 553.92 73.232 552.128 71.44C550.336 69.648 549.44 67.4293 549.44 64.784C549.44 62.1387 550.336 59.92 552.128 58.128C553.92 56.336 556.139 55.44 558.784 55.44C561.344 55.44 563.52 56.336 565.312 58.128C567.104 59.92 568 62.1387 568 64.784C568 67.4293 567.104 69.648 565.312 71.44C563.52 73.232 561.344 74.128 558.784 74.128ZM565.952 83.472V154H551.36V83.472H565.952Z" fill="#1B2734"/>
</svg>
