<svg width="240" height="240" viewBox="0 0 240 240" fill="none" xmlns="http://www.w3.org/2000/svg">
<rect width="240" height="240" rx="60" fill="url(#paint0_linear_36_142)"/>
<g filter="url(#filter0_d_36_142)">
<path d="M125.281 158.145H107.361L66.7852 96.8325V158.145H48.8652V68.6725H66.7852L107.361 130.113V68.6725H125.281V158.145Z" fill="white"/>
</g>
<g filter="url(#filter1_d_36_142)">
<path d="M161.647 189.896C155.417 189.896 149.785 188.829 144.751 186.696C139.801 184.563 135.876 181.491 132.975 177.48C130.073 173.469 128.58 168.733 128.495 163.272H147.695C147.951 166.941 149.231 169.843 151.535 171.976C153.924 174.109 157.167 175.176 161.263 175.176C165.444 175.176 168.729 174.195 171.119 172.232C173.508 170.184 174.703 167.539 174.703 164.296C174.703 161.651 173.892 159.475 172.271 157.768C170.649 156.061 168.601 154.739 166.127 153.8C163.737 152.776 160.409 151.667 156.143 150.472C150.34 148.765 145.604 147.101 141.935 145.48C138.351 143.773 135.236 141.256 132.591 137.928C130.031 134.515 128.751 129.992 128.751 124.36C128.751 119.069 130.073 114.461 132.719 110.536C135.364 106.611 139.076 103.624 143.855 101.576C148.633 99.4427 154.095 98.376 160.239 98.376C169.455 98.376 176.921 100.637 182.639 105.16C188.441 109.597 191.641 115.827 192.239 123.848H172.527C172.356 120.776 171.033 118.259 168.559 116.296C166.169 114.248 162.969 113.224 158.959 113.224C155.46 113.224 152.644 114.12 150.511 115.912C148.463 117.704 147.439 120.307 147.439 123.72C147.439 126.109 148.207 128.115 149.743 129.736C151.364 131.272 153.327 132.552 155.631 133.576C158.02 134.515 161.348 135.624 165.615 136.904C171.417 138.611 176.153 140.317 179.823 142.024C183.492 143.731 186.649 146.291 189.295 149.704C191.94 153.117 193.263 157.597 193.263 163.144C193.263 167.923 192.025 172.36 189.551 176.456C187.076 180.552 183.449 183.837 178.671 186.312C173.892 188.701 168.217 189.896 161.647 189.896Z" fill="white"/>
</g>
<defs>
<filter id="filter0_d_36_142" x="44.8652" y="68.6729" width="84.416" height="97.4717" filterUnits="userSpaceOnUse" color-interpolation-filters="sRGB">
<feFlood flood-opacity="0" result="BackgroundImageFix"/>
<feColorMatrix in="SourceAlpha" type="matrix" values="0 0 0 0 0 0 0 0 0 0 0 0 0 0 0 0 0 0 127 0" result="hardAlpha"/>
<feOffset dy="4"/>
<feGaussianBlur stdDeviation="2"/>
<feComposite in2="hardAlpha" operator="out"/>
<feColorMatrix type="matrix" values="0 0 0 0 0 0 0 0 0 0 0 0 0 0 0 0 0 0 0.25 0"/>
<feBlend mode="normal" in2="BackgroundImageFix" result="effect1_dropShadow_36_142"/>
<feBlend mode="normal" in="SourceGraphic" in2="effect1_dropShadow_36_142" result="shape"/>
</filter>
<filter id="filter1_d_36_142" x="124.495" y="98.376" width="72.7676" height="99.5205" filterUnits="userSpaceOnUse" color-interpolation-filters="sRGB">
<feFlood flood-opacity="0" result="BackgroundImageFix"/>
<feColorMatrix in="SourceAlpha" type="matrix" values="0 0 0 0 0 0 0 0 0 0 0 0 0 0 0 0 0 0 127 0" result="hardAlpha"/>
<feOffset dy="4"/>
<feGaussianBlur stdDeviation="2"/>
<feComposite in2="hardAlpha" operator="out"/>
<feColorMatrix type="matrix" values="0 0 0 0 0 0 0 0 0 0 0 0 0 0 0 0 0 0 0.25 0"/>
<feBlend mode="normal" in2="BackgroundImageFix" result="effect1_dropShadow_36_142"/>
<feBlend mode="normal" in="SourceGraphic" in2="effect1_dropShadow_36_142" result="shape"/>
</filter>
<linearGradient id="paint0_linear_36_142" x1="-4.87026" y1="-3.32931e-06" x2="240" y2="240" gradientUnits="userSpaceOnUse">
<stop stop-color="#3D57FB"/>
<stop offset="1" stop-color="#9123FB"/>
</linearGradient>
</defs>
</svg>
